<?xml version="1.0" encoding="utf-8"?>
<!-- Generator: Adobe Illustrator 18.0.0, SVG Export Plug-In . SVG Version: 6.00 Build 0)  -->
<!DOCTYPE svg PUBLIC "-//W3C//DTD SVG 1.1//EN" "http://www.w3.org/Graphics/SVG/1.1/DTD/svg11.dtd">
<svg version="1.1" id="Layer_1" xmlns="http://www.w3.org/2000/svg" xmlns:xlink="http://www.w3.org/1999/xlink" x="0px" y="0px"
	 viewBox="0 0 1400 980" enable-background="new 0 0 1400 980" xml:space="preserve">
<g>
	<g>
		<g>
			<path fill="#414042" d="M349,202c-0.4,0-0.8-0.4-0.8-0.8c0-58.9-47.9-106.9-106.9-106.9c-58.9,0-106.9,47.9-106.9,106.9
				c0,0.4-0.4,0.8-0.8,0.8s-0.8-0.4-0.8-0.8c0-29,11.3-56.2,31.7-76.7c20.5-20.5,47.7-31.7,76.7-31.7c29,0,56.2,11.3,76.7,31.7
				c20.5,20.5,31.7,47.7,31.7,76.7C349.8,201.7,349.5,202,349,202z"/>
		</g>
		<g>
			<path fill="#414042" d="M339.2,202c-0.4,0-0.8-0.4-0.8-0.8c0-53.5-43.6-97.1-97.1-97.1c-53.5,0-97.1,43.6-97.1,97.1
				c0,0.4-0.4,0.8-0.8,0.8c-0.4,0-0.8-0.4-0.8-0.8c0-26.4,10.3-51.2,28.9-69.8s43.4-28.9,69.8-28.9s51.2,10.3,69.8,28.9
				c18.6,18.6,28.9,43.4,28.9,69.8C340,201.7,339.7,202,339.2,202z"/>
		</g>
		<g>
			<path fill="#414042" d="M339.2,202c-0.4,0-0.8-0.4-0.8-0.8c0-53.5-43.6-97.1-97.1-97.1c-53.5,0-97.1,43.6-97.1,97.1
				c0,0.4-0.4,0.8-0.8,0.8c-0.4,0-0.8-0.4-0.8-0.8c0-26.4,10.3-51.2,28.9-69.8s43.4-28.9,69.8-28.9s51.2,10.3,69.8,28.9
				c18.6,18.6,28.9,43.4,28.9,69.8C340,201.7,339.7,202,339.2,202z"/>
		</g>
		<g>
			<path fill="#414042" d="M329.5,202c-0.4,0-0.8-0.4-0.8-0.8c0-48.1-39.2-87.3-87.3-87.3c-48.1,0-87.3,39.2-87.3,87.3
				c0,0.4-0.4,0.8-0.8,0.8s-0.8-0.4-0.8-0.8c0-23.8,9.2-46.1,26-62.9c16.8-16.8,39.1-26,62.9-26c23.8,0,46.1,9.2,62.9,26
				c16.8,16.8,26,39.1,26,62.9C330.2,201.7,329.9,202,329.5,202z"/>
		</g>
		<g>
			<path fill="#414042" d="M329.5,202c-0.4,0-0.8-0.4-0.8-0.8c0-48.1-39.2-87.3-87.3-87.3c-48.1,0-87.3,39.2-87.3,87.3
				c0,0.4-0.4,0.8-0.8,0.8s-0.8-0.4-0.8-0.8c0-23.8,9.2-46.1,26-62.9c16.8-16.8,39.1-26,62.9-26c23.8,0,46.1,9.2,62.9,26
				c16.8,16.8,26,39.1,26,62.9C330.2,201.7,329.9,202,329.5,202z"/>
		</g>
		<g>
			<path fill="#414042" d="M319.7,202c-0.4,0-0.8-0.4-0.8-0.8c0-42.7-34.8-77.5-77.5-77.5s-77.5,34.8-77.5,77.5
				c0,0.4-0.4,0.8-0.8,0.8s-0.8-0.4-0.8-0.8c0-21.1,8.2-41,23.2-55.9c14.9-14.9,34.8-23.2,55.9-23.2s41,8.2,55.9,23.2
				c14.9,14.9,23.2,34.8,23.2,55.9C320.5,201.7,320.1,202,319.7,202z"/>
		</g>
		<g>
			<path fill="#414042" d="M319.7,202c-0.4,0-0.8-0.4-0.8-0.8c0-42.7-34.8-77.5-77.5-77.5s-77.5,34.8-77.5,77.5
				c0,0.4-0.4,0.8-0.8,0.8s-0.8-0.4-0.8-0.8c0-21.1,8.2-41,23.2-55.9c14.9-14.9,34.8-23.2,55.9-23.2s41,8.2,55.9,23.2
				c14.9,14.9,23.2,34.8,23.2,55.9C320.5,201.7,320.1,202,319.7,202z"/>
		</g>
		<g>
			<path fill="#414042" d="M309.9,202c-0.4,0-0.8-0.4-0.8-0.8c0-37.3-30.4-67.7-67.7-67.7s-67.7,30.4-67.7,67.7
				c0,0.4-0.4,0.8-0.8,0.8s-0.8-0.4-0.8-0.8c0-18.5,7.2-35.9,20.3-49c13.1-13.1,30.5-20.3,49-20.3s35.9,7.2,49,20.3
				c13.1,13.1,20.3,30.5,20.3,49C310.7,201.7,310.3,202,309.9,202z"/>
		</g>
		<g>
			<path fill="#414042" d="M309.9,202c-0.4,0-0.8-0.4-0.8-0.8c0-37.3-30.4-67.7-67.7-67.7s-67.7,30.4-67.7,67.7
				c0,0.4-0.4,0.8-0.8,0.8s-0.8-0.4-0.8-0.8c0-18.5,7.2-35.9,20.3-49c13.1-13.1,30.5-20.3,49-20.3s35.9,7.2,49,20.3
				c13.1,13.1,20.3,30.5,20.3,49C310.7,201.7,310.3,202,309.9,202z"/>
		</g>
		<g>
			<path fill="#414042" d="M300.1,202c-0.4,0-0.8-0.4-0.8-0.8c0-31.9-26-57.9-57.9-57.9s-57.9,26-57.9,57.9c0,0.4-0.4,0.8-0.8,0.8
				s-0.8-0.4-0.8-0.8c0-15.9,6.2-30.9,17.4-42.1c11.2-11.2,26.2-17.4,42.1-17.4c15.9,0,30.9,6.2,42.1,17.4
				c11.2,11.2,17.4,26.2,17.4,42.1C300.9,201.7,300.5,202,300.1,202z"/>
		</g>
		<g>
			<path fill="#414042" d="M300.1,202c-0.4,0-0.8-0.4-0.8-0.8c0-31.9-26-57.9-57.9-57.9s-57.9,26-57.9,57.9c0,0.4-0.4,0.8-0.8,0.8
				s-0.8-0.4-0.8-0.8c0-15.9,6.2-30.9,17.4-42.1c11.2-11.2,26.2-17.4,42.1-17.4c15.9,0,30.9,6.2,42.1,17.4
				c11.2,11.2,17.4,26.2,17.4,42.1C300.9,201.7,300.5,202,300.1,202z"/>
		</g>
		<g>
			<path fill="#414042" d="M290.3,202c-0.4,0-0.8-0.4-0.8-0.8c0-26.5-21.6-48.1-48.1-48.1s-48.1,21.6-48.1,48.1
				c0,0.4-0.4,0.8-0.8,0.8c-0.4,0-0.8-0.4-0.8-0.8c0-13.3,5.2-25.8,14.6-35.2s21.9-14.6,35.2-14.6c13.3,0,25.8,5.2,35.2,14.6
				c9.4,9.4,14.6,21.9,14.6,35.2C291.1,201.7,290.7,202,290.3,202z"/>
		</g>
		<g>
			<path fill="#414042" d="M290.3,202c-0.4,0-0.8-0.4-0.8-0.8c0-26.5-21.6-48.1-48.1-48.1s-48.1,21.6-48.1,48.1
				c0,0.4-0.4,0.8-0.8,0.8c-0.4,0-0.8-0.4-0.8-0.8c0-13.3,5.2-25.8,14.6-35.2s21.9-14.6,35.2-14.6c13.3,0,25.8,5.2,35.2,14.6
				c9.4,9.4,14.6,21.9,14.6,35.2C291.1,201.7,290.7,202,290.3,202z"/>
		</g>
		<g>
			<path fill="#414042" d="M280.5,202c-0.4,0-0.8-0.4-0.8-0.8c0-21.2-17.2-38.4-38.4-38.4S203,180.1,203,201.3
				c0,0.4-0.4,0.8-0.8,0.8s-0.8-0.4-0.8-0.8c0-22,17.9-39.9,39.9-39.9s39.9,17.9,39.9,39.9C281.3,201.7,281,202,280.5,202z"/>
		</g>
		<g>
			<path fill="#414042" d="M280.5,202c-0.4,0-0.8-0.4-0.8-0.8c0-21.2-17.2-38.4-38.4-38.4S203,180.1,203,201.3
				c0,0.4-0.4,0.8-0.8,0.8s-0.8-0.4-0.8-0.8c0-22,17.9-39.9,39.9-39.9s39.9,17.9,39.9,39.9C281.3,201.7,281,202,280.5,202z"/>
		</g>
		<g>
			<path fill="#414042" d="M270.7,202c-0.4,0-0.8-0.4-0.8-0.8c0-15.8-12.8-28.6-28.6-28.6s-28.6,12.8-28.6,28.6
				c0,0.4-0.4,0.8-0.8,0.8s-0.8-0.4-0.8-0.8c0-16.6,13.5-30.2,30.2-30.2s30.2,13.5,30.2,30.2C271.5,201.7,271.2,202,270.7,202z"/>
		</g>
		<g>
			<path fill="#414042" d="M270.7,202c-0.4,0-0.8-0.4-0.8-0.8c0-15.8-12.8-28.6-28.6-28.6s-28.6,12.8-28.6,28.6
				c0,0.4-0.4,0.8-0.8,0.8s-0.8-0.4-0.8-0.8c0-16.6,13.5-30.2,30.2-30.2s30.2,13.5,30.2,30.2C271.5,201.7,271.2,202,270.7,202z"/>
		</g>
		<g>
			<path fill="#414042" d="M260.9,202c-0.4,0-0.8-0.4-0.8-0.8c0-10.4-8.4-18.8-18.8-18.8s-18.8,8.4-18.8,18.8c0,0.4-0.4,0.8-0.8,0.8
				c-0.4,0-0.8-0.4-0.8-0.8c0-11.2,9.1-20.4,20.4-20.4c11.2,0,20.4,9.1,20.4,20.4C261.7,201.7,261.4,202,260.9,202z"/>
		</g>
		<g>
			<path fill="#414042" d="M260.9,202c-0.4,0-0.8-0.4-0.8-0.8c0-10.4-8.4-18.8-18.8-18.8s-18.8,8.4-18.8,18.8c0,0.4-0.4,0.8-0.8,0.8
				c-0.4,0-0.8-0.4-0.8-0.8c0-11.2,9.1-20.4,20.4-20.4c11.2,0,20.4,9.1,20.4,20.4C261.7,201.7,261.4,202,260.9,202z"/>
		</g>
		<g>
			<path fill="#414042" d="M251.2,202c-0.4,0-0.8-0.4-0.8-0.8c0-5-4-9-9-9c-5,0-9,4-9,9c0,0.4-0.4,0.8-0.8,0.8s-0.8-0.4-0.8-0.8
				c0-5.8,4.7-10.6,10.6-10.6c5.8,0,10.6,4.7,10.6,10.6C251.9,201.7,251.6,202,251.2,202z"/>
		</g>
		<g>
			<path fill="#414042" d="M251.2,202c-0.4,0-0.8-0.4-0.8-0.8c0-5-4-9-9-9c-5,0-9,4-9,9c0,0.4-0.4,0.8-0.8,0.8s-0.8-0.4-0.8-0.8
				c0-5.8,4.7-10.6,10.6-10.6c5.8,0,10.6,4.7,10.6,10.6C251.9,201.7,251.6,202,251.2,202z"/>
		</g>
		<g>
			<path fill="#414042" d="M251.1,299.9c-26.4,0-51.2-10.3-69.8-28.9s-28.9-43.4-28.9-69.8c0-0.4,0.4-0.8,0.8-0.8s0.8,0.4,0.8,0.8
				c0,53.5,43.6,97.1,97.1,97.1c53.5,0,97.1-43.6,97.1-97.1c0-0.4,0.4-0.8,0.8-0.8s0.8,0.4,0.8,0.8c0,26.4-10.3,51.2-28.9,69.8
				C302.3,289.7,277.5,299.9,251.1,299.9z"/>
		</g>
		<g>
			<path fill="#414042" d="M251.1,309.7c-29,0-56.2-11.3-76.7-31.7c-20.5-20.5-31.7-47.7-31.7-76.7c0-0.4,0.4-0.8,0.8-0.8
				s0.8,0.4,0.8,0.8c0,58.9,47.9,106.9,106.9,106.9c58.9,0,106.9-47.9,106.9-106.9c0-0.4,0.4-0.8,0.8-0.8c0.4,0,0.8,0.4,0.8,0.8
				c0,29-11.3,56.2-31.7,76.7C307.4,298.4,280.1,309.7,251.1,309.7z"/>
		</g>
		<g>
			<path fill="#414042" d="M251.1,290.1c-23.8,0-46.1-9.2-62.9-26c-16.8-16.8-26-39.1-26-62.9c0-0.4,0.4-0.8,0.8-0.8
				s0.8,0.4,0.8,0.8c0,48.1,39.2,87.3,87.3,87.3c48.1,0,87.3-39.2,87.3-87.3c0-0.4,0.4-0.8,0.8-0.8s0.8,0.4,0.8,0.8
				c0,23.8-9.2,46.1-26,62.9C297.2,280.9,274.9,290.1,251.1,290.1z"/>
		</g>
		<g>
			<path fill="#414042" d="M251.1,299.9c-26.4,0-51.2-10.3-69.8-28.9s-28.9-43.4-28.9-69.8c0-0.4,0.4-0.8,0.8-0.8s0.8,0.4,0.8,0.8
				c0,53.5,43.6,97.1,97.1,97.1c53.5,0,97.1-43.6,97.1-97.1c0-0.4,0.4-0.8,0.8-0.8s0.8,0.4,0.8,0.8c0,26.4-10.3,51.2-28.9,69.8
				C302.3,289.7,277.5,299.9,251.1,299.9z"/>
		</g>
		<g>
			<path fill="#414042" d="M251.1,280.3c-21.1,0-41-8.2-55.9-23.2c-14.9-14.9-23.2-34.8-23.2-55.9c0-0.4,0.4-0.8,0.8-0.8
				s0.8,0.4,0.8,0.8c0,42.7,34.8,77.5,77.5,77.5s77.5-34.8,77.5-77.5c0-0.4,0.4-0.8,0.8-0.8c0.4,0,0.8,0.4,0.8,0.8
				c0,21.1-8.2,41-23.2,55.9C292.1,272.1,272.3,280.3,251.1,280.3z"/>
		</g>
		<g>
			<path fill="#414042" d="M251.1,290.1c-23.8,0-46.1-9.2-62.9-26c-16.8-16.8-26-39.1-26-62.9c0-0.4,0.4-0.8,0.8-0.8
				s0.8,0.4,0.8,0.8c0,48.1,39.2,87.3,87.3,87.3c48.1,0,87.3-39.2,87.3-87.3c0-0.4,0.4-0.8,0.8-0.8s0.8,0.4,0.8,0.8
				c0,23.8-9.2,46.1-26,62.9C297.2,280.9,274.9,290.1,251.1,290.1z"/>
		</g>
		<g>
			<path fill="#414042" d="M251.1,270.6c-18.5,0-35.9-7.2-49-20.3s-20.3-30.5-20.3-49c0-0.4,0.4-0.8,0.8-0.8s0.8,0.4,0.8,0.8
				c0,37.3,30.4,67.7,67.7,67.7s67.7-30.4,67.7-67.7c0-0.4,0.4-0.8,0.8-0.8s0.8,0.4,0.8,0.8c0,18.5-7.2,35.9-20.3,49
				C287.1,263.4,269.7,270.6,251.1,270.6z"/>
		</g>
		<g>
			<path fill="#414042" d="M251.1,280.3c-21.1,0-41-8.2-55.9-23.2c-14.9-14.9-23.2-34.8-23.2-55.9c0-0.4,0.4-0.8,0.8-0.8
				s0.8,0.4,0.8,0.8c0,42.7,34.8,77.5,77.5,77.5s77.5-34.8,77.5-77.5c0-0.4,0.4-0.8,0.8-0.8c0.4,0,0.8,0.4,0.8,0.8
				c0,21.1-8.2,41-23.2,55.9C292.1,272.1,272.3,280.3,251.1,280.3z"/>
		</g>
		<g>
			<path fill="#414042" d="M251.1,251c-13.3,0-25.8-5.2-35.2-14.6s-14.6-21.9-14.6-35.2c0-0.4,0.4-0.8,0.8-0.8s0.8,0.4,0.8,0.8
				c0,26.5,21.6,48.1,48.1,48.1s48.1-21.6,48.1-48.1c0-0.4,0.4-0.8,0.8-0.8c0.4,0,0.8,0.4,0.8,0.8c0,13.3-5.2,25.8-14.6,35.2
				C276.9,245.8,264.4,251,251.1,251z"/>
		</g>
		<g>
			<path fill="#414042" d="M251.1,260.8c-15.9,0-30.9-6.2-42.1-17.4c-11.2-11.2-17.4-26.2-17.4-42.1c0-0.4,0.4-0.8,0.8-0.8
				s0.8,0.4,0.8,0.8c0,31.9,26,57.9,57.9,57.9s57.9-26,57.9-57.9c0-0.4,0.4-0.8,0.8-0.8s0.8,0.4,0.8,0.8c0,15.9-6.2,30.9-17.4,42.1
				C282,254.6,267.1,260.8,251.1,260.8z"/>
		</g>
		<g>
			<path fill="#414042" d="M251.1,241.2c-22,0-39.9-17.9-39.9-39.9c0-0.4,0.4-0.8,0.8-0.8c0.4,0,0.8,0.4,0.8,0.8
				c0,21.2,17.2,38.4,38.4,38.4s38.4-17.2,38.4-38.4c0-0.4,0.4-0.8,0.8-0.8s0.8,0.4,0.8,0.8C291.1,223.3,273.2,241.2,251.1,241.2z"
				/>
		</g>
		<g>
			<path fill="#414042" d="M251.1,251c-13.3,0-25.8-5.2-35.2-14.6s-14.6-21.9-14.6-35.2c0-0.4,0.4-0.8,0.8-0.8s0.8,0.4,0.8,0.8
				c0,26.5,21.6,48.1,48.1,48.1s48.1-21.6,48.1-48.1c0-0.4,0.4-0.8,0.8-0.8c0.4,0,0.8,0.4,0.8,0.8c0,13.3-5.2,25.8-14.6,35.2
				C276.9,245.8,264.4,251,251.1,251z"/>
		</g>
		<g>
			<path fill="#414042" d="M251.1,231.4c-16.6,0-30.2-13.5-30.2-30.2c0-0.4,0.4-0.8,0.8-0.8s0.8,0.4,0.8,0.8
				c0,15.8,12.8,28.6,28.6,28.6s28.6-12.8,28.6-28.6c0-0.4,0.4-0.8,0.8-0.8s0.8,0.4,0.8,0.8C281.3,217.9,267.8,231.4,251.1,231.4z"
				/>
		</g>
		<g>
			<path fill="#414042" d="M251.1,241.2c-22,0-39.9-17.9-39.9-39.9c0-0.4,0.4-0.8,0.8-0.8c0.4,0,0.8,0.4,0.8,0.8
				c0,21.2,17.2,38.4,38.4,38.4s38.4-17.2,38.4-38.4c0-0.4,0.4-0.8,0.8-0.8s0.8,0.4,0.8,0.8C291.1,223.3,273.2,241.2,251.1,241.2z"
				/>
		</g>
		<g>
			<path fill="#414042" d="M251.1,221.6c-11.2,0-20.4-9.1-20.4-20.4c0-0.4,0.4-0.8,0.8-0.8s0.8,0.4,0.8,0.8
				c0,10.4,8.4,18.8,18.8,18.8c10.4,0,18.8-8.4,18.8-18.8c0-0.4,0.4-0.8,0.8-0.8s0.8,0.4,0.8,0.8
				C271.5,212.5,262.4,221.6,251.1,221.6z"/>
		</g>
		<g>
			<path fill="#414042" d="M251.1,231.4c-16.6,0-30.2-13.5-30.2-30.2c0-0.4,0.4-0.8,0.8-0.8s0.8,0.4,0.8,0.8
				c0,15.8,12.8,28.6,28.6,28.6s28.6-12.8,28.6-28.6c0-0.4,0.4-0.8,0.8-0.8s0.8,0.4,0.8,0.8C281.3,217.9,267.8,231.4,251.1,231.4z"
				/>
		</g>
		<g>
			<path fill="#414042" d="M251.1,211.8c-5.8,0-10.6-4.7-10.6-10.6c0-0.4,0.4-0.8,0.8-0.8s0.8,0.4,0.8,0.8c0,5,4,9,9,9c5,0,9-4,9-9
				c0-0.4,0.4-0.8,0.8-0.8s0.8,0.4,0.8,0.8C261.7,207.1,257,211.8,251.1,211.8z"/>
		</g>
		<g>
			<path fill="#414042" d="M251.1,221.6c-11.2,0-20.4-9.1-20.4-20.4c0-0.4,0.4-0.8,0.8-0.8s0.8,0.4,0.8,0.8
				c0,10.4,8.4,18.8,18.8,18.8c10.4,0,18.8-8.4,18.8-18.8c0-0.4,0.4-0.8,0.8-0.8s0.8,0.4,0.8,0.8
				C271.5,212.5,262.4,221.6,251.1,221.6z"/>
		</g>
		<g>
			<path fill="#414042" d="M251.1,211.8c-5.8,0-10.6-4.7-10.6-10.6c0-0.4,0.4-0.8,0.8-0.8s0.8,0.4,0.8,0.8c0,5,4,9,9,9c5,0,9-4,9-9
				c0-0.4,0.4-0.8,0.8-0.8s0.8,0.4,0.8,0.8C261.7,207.1,257,211.8,251.1,211.8z"/>
		</g>
	</g>
	<g>
		<g>
			<path fill="#414042" d="M546.1,307c-60.9,0-110.4-49.5-110.4-110.4c0-3.8,3.1-6.8,6.8-6.8s6.8,3.1,6.8,6.8
				c0,53.4,43.4,96.8,96.8,96.8s96.8-43.4,96.8-96.8c0-3.8,3.1-6.8,6.8-6.8c3.8,0,6.8,3.1,6.8,6.8C656.5,257.4,607,307,546.1,307z"
				/>
		</g>
		<g>
			<path fill="#414042" d="M546.1,288.1c-50.5,0-91.6-41.1-91.6-91.6c0-3.8,3.1-6.8,6.8-6.8s6.8,3.1,6.8,6.8c0,43,35,77.9,77.9,77.9
				s77.9-35,77.9-77.9c0-3.8,3.1-6.8,6.8-6.8c3.8,0,6.8,3.1,6.8,6.8C637.7,247,596.6,288.1,546.1,288.1z"/>
		</g>
		<g>
			<path fill="#414042" d="M546.1,269.3c-40.1,0-72.8-32.6-72.8-72.8c0-3.8,3.1-6.8,6.8-6.8c3.8,0,6.8,3.1,6.8,6.8
				c0,32.6,26.5,59.1,59.1,59.1s59.1-26.5,59.1-59.1c0-3.8,3.1-6.8,6.8-6.8c3.8,0,6.8,3.1,6.8,6.8
				C618.9,236.7,586.2,269.3,546.1,269.3z"/>
		</g>
		<g>
			<path fill="#414042" d="M546.1,250.5c-29.7,0-53.9-24.2-53.9-53.9c0-3.8,3.1-6.8,6.8-6.8c3.8,0,6.8,3.1,6.8,6.8
				c0,22.2,18.1,40.3,40.3,40.3s40.3-18.1,40.3-40.3c0-3.8,3.1-6.8,6.8-6.8c3.8,0,6.8,3.1,6.8,6.8
				C600,226.3,575.9,250.5,546.1,250.5z"/>
		</g>
		<g>
			<path fill="#414042" d="M546.1,231.6c-19.3,0-35.1-15.7-35.1-35.1c0-3.8,3.1-6.8,6.8-6.8c3.8,0,6.8,3.1,6.8,6.8
				c0,11.8,9.6,21.4,21.4,21.4s21.4-9.6,21.4-21.4c0-3.8,3.1-6.8,6.8-6.8s6.8,3.1,6.8,6.8C581.2,215.9,565.5,231.6,546.1,231.6z"/>
		</g>
		<g>
			<path fill="#414042" d="M546.1,212.8c-9,0-16.3-7.3-16.3-16.3c0-3.8,3.1-6.8,6.8-6.8c3.8,0,6.8,3.1,6.8,6.8
				c0,1.4,1.2,2.6,2.6,2.6s2.6-1.2,2.6-2.6c0-3.8,3.1-6.8,6.8-6.8c3.8,0,6.8,3.1,6.8,6.8C562.4,205.5,555.1,212.8,546.1,212.8z"/>
		</g>
		<g>
			<path fill="#414042" d="M546.1,212.8c-9,0-16.3-7.3-16.3-16.3c0-3.8,3.1-6.8,6.8-6.8c3.8,0,6.8,3.1,6.8,6.8
				c0,1.4,1.2,2.6,2.6,2.6s2.6-1.2,2.6-2.6c0-3.8,3.1-6.8,6.8-6.8c3.8,0,6.8,3.1,6.8,6.8C562.4,205.5,555.1,212.8,546.1,212.8z"/>
		</g>
		<g>
			<path fill="#414042" d="M630.9,203.4c-3.8,0-6.8-3.1-6.8-6.8c0-48.2-39.2-87.3-87.3-87.3c-48.2,0-87.3,39.2-87.3,87.3
				c0,3.8-3.1,6.8-6.8,6.8c-3.8,0-6.8-3.1-6.8-6.8c0-55.7,45.3-101,101-101c55.7,0,101,45.3,101,101
				C637.7,200.3,634.7,203.4,630.9,203.4z"/>
		</g>
		<g>
			<path fill="#414042" d="M612.1,203.4c-3.8,0-6.8-3.1-6.8-6.8c0-37.8-30.7-68.5-68.5-68.5c-37.8,0-68.5,30.7-68.5,68.5
				c0,3.8-3.1,6.8-6.8,6.8c-3.8,0-6.8-3.1-6.8-6.8c0-45.3,36.9-82.2,82.2-82.2c45.3,0,82.2,36.9,82.2,82.2
				C618.9,200.3,615.8,203.4,612.1,203.4z"/>
		</g>
		<g>
			<path fill="#414042" d="M593.2,203.4c-3.8,0-6.8-3.1-6.8-6.8c0-27.4-22.3-49.7-49.7-49.7c-27.4,0-49.7,22.3-49.7,49.7
				c0,3.8-3.1,6.8-6.8,6.8s-6.8-3.1-6.8-6.8c0-34.9,28.4-63.3,63.3-63.3c34.9,0,63.3,28.4,63.3,63.3
				C600.1,200.3,597,203.4,593.2,203.4z"/>
		</g>
		<g>
			<path fill="#414042" d="M574.4,203.4c-3.8,0-6.8-3.1-6.8-6.8c0-17-13.8-30.8-30.8-30.8c-17,0-30.8,13.8-30.8,30.8
				c0,3.8-3.1,6.8-6.8,6.8s-6.8-3.1-6.8-6.8c0-24.5,20-44.5,44.5-44.5c24.5,0,44.5,20,44.5,44.5
				C581.2,200.3,578.2,203.4,574.4,203.4z"/>
		</g>
		<g>
			<path fill="#414042" d="M555.6,203.4c-3.8,0-6.8-3.1-6.8-6.8c0-6.6-5.4-12-12-12c-6.6,0-12,5.4-12,12c0,3.8-3.1,6.8-6.8,6.8
				s-6.8-3.1-6.8-6.8c0-14.2,11.5-25.7,25.7-25.7c14.2,0,25.7,11.5,25.7,25.7C562.4,200.3,559.3,203.4,555.6,203.4z"/>
		</g>
		<g>
			<path fill="#414042" d="M555.6,203.4c-3.8,0-6.8-3.1-6.8-6.8c0-6.6-5.4-12-12-12c-6.6,0-12,5.4-12,12c0,3.8-3.1,6.8-6.8,6.8
				s-6.8-3.1-6.8-6.8c0-14.2,11.5-25.7,25.7-25.7c14.2,0,25.7,11.5,25.7,25.7C562.4,200.3,559.3,203.4,555.6,203.4z"/>
		</g>
	</g>
	<path fill="#414042" d="M940.1,116.1c0,0,0.3,0.7,1,2c0.3,0.6,0.7,1.5,1.2,2.4c0.1,0.2,0.3,0.5,0.4,0.8c0.2,0.3,0.3,0.7,0.5,1.1
		c0.3,0.7,0.7,1.5,1.1,2.4c0.4,0.8,0.8,1.7,1.2,2.6c0.4,0.9,0.7,1.8,1.1,2.8c0.8,1.9,1.6,4,2.4,6.4c0.4,1.2,0.8,2.4,1.2,3.6
		c0.4,1.3,0.7,2.6,1.1,3.9c0.8,2.7,1.4,5.6,2.1,8.7c1.2,6.2,2.2,13.1,2.6,20.7c0.4,7.6,0.1,15.8-1.2,24.4
		c-1.2,8.6-3.4,17.7-6.8,26.8c-1.6,4.6-3.7,9.2-6,13.7c-0.6,1.1-1.2,2.3-1.8,3.4c-0.6,1.1-1.2,2.3-1.9,3.4c-1.4,2.2-2.7,4.5-4.2,6.7
		c-2.9,4.5-6.3,8.7-9.9,13c-0.9,1-1.9,2.1-2.8,3.1l-1.4,1.5l-1.5,1.5c-1,1-2,2-3,3c-1.1,1-2.1,1.9-3.2,2.9l-1.6,1.4l-1.7,1.4
		c-1.1,0.9-2.2,1.8-3.4,2.7c-1.2,0.9-2.3,1.7-3.5,2.6l-1.8,1.3l-1.8,1.2c-1.2,0.8-2.5,1.6-3.7,2.4c-1.3,0.7-2.6,1.5-3.8,2.3l-1,0.6
		l-0.5,0.3l-0.7,0.4l-0.2,0.1l-1.7,0.9l-1.7,0.9l-0.5,0.2l-0.6,0.3l-1.2,0.5l-2.3,1.1l-1.2,0.5l-1.1,0.4c-1.5,0.6-2.9,1.2-4.4,1.7
		c-1.5,0.5-3,1-4.5,1.5c-1.5,0.4-3.1,0.9-4.6,1.3c-6.2,1.6-12.6,2.7-19.2,3.2c-13.1,1-26.5-0.5-39.4-4.5
		c-12.9-4-25.1-10.6-35.7-19.4c-5.3-4.4-10.2-9.4-14.5-14.8c-1.1-1.3-2.1-2.7-3.2-4.1c-1.1-1.4-2-2.8-2.9-4.3
		c-1-1.4-1.9-2.9-2.7-4.4l-0.7-1.1l-0.3-0.6l-0.3-0.6l-0.1-0.2l-1-2l-0.5-1l-0.6-1.3l-1.2-2.7c-0.7-1.7-1.4-3.4-2-5.1
		c-0.6-1.7-1.2-3.4-1.7-5.2c-0.5-1.7-0.9-3.5-1.3-5.3c-1.6-7.1-2.2-14.4-1.9-21.7c0.6-14.5,4.9-28.9,12.6-41.2
		c3.8-6.2,8.4-11.8,13.6-16.8c2.6-2.4,5.4-4.8,8.3-6.9c1.4-1.1,2.9-2.1,4.4-3c0.7-0.5,1.5-0.9,2.3-1.4l2.6-1.5l2-1l0.5-0.3l0.7-0.3
		l1.4-0.6l1.4-0.6l1.3-0.5c0.9-0.3,1.7-0.7,2.6-1c3.5-1.3,7.1-2.2,10.7-2.9c3.6-0.7,7.3-1.1,10.9-1.2c3.7-0.1,7.3,0.1,10.9,0.6
		c14.4,1.9,27.9,8.4,38.1,18.1c2.5,2.4,4.9,5,7.1,7.8c2.1,2.8,4,5.7,5.7,8.7c0.6,1.1,0.2,0.4,0.4,0.8l0.1,0.2l0.2,0.5l0.5,1l0.9,1.9
		c0.1,0.3,0.3,0.8,0.5,1.2l0.5,1.4l1,2.8l0.2,0.7c0.1,0.2,0.1,0.4,0.2,0.7l0.3,1.3l0.7,2.6c0.2,0.9,0.4,1.7,0.5,2.6l0.4,2.6
		c0.9,7,0.4,14.1-1.2,20.7c-1.7,6.7-4.5,12.9-8.4,18.4c-3.8,5.5-8.6,10.2-14,13.9c-1.4,0.9-2.7,1.7-4.1,2.6l-0.3,0.2
		c0,0-1,0.5-0.7,0.4l-0.4,0.2l-0.9,0.4l-1.8,0.9c-1.6,0.7-3.5,1.4-5.1,1.9l-2.4,0.6c-0.8,0.2-1.6,0.4-2.4,0.6
		c-6.5,1.2-13.1,1-19.2-0.5c-6.2-1.5-11.9-4.2-16.8-7.9c-4.9-3.7-8.9-8.3-11.8-13.3l-0.3-0.5c-0.1-0.3,0.1,0.2-0.4-0.6l-0.1-0.2
		l-0.4-0.8l-0.8-1.6c-0.3-0.7-0.6-1.5-0.9-2.3c-0.3-0.8-0.6-1.6-0.8-2.3c-0.4-1.5-0.8-2.9-1-4.4c-0.1-0.7-0.2-1.5-0.3-2.2
		c0-0.7-0.1-1.5-0.1-2.2c-0.1-1.5,0-2.9,0-4.4c0-0.7,0.1-1.4,0.2-2.1c0.1-0.7,0.2-1.4,0.3-2.1c0.2-0.7,0.3-1.4,0.5-2.1
		c0.2-0.7,0.3-1.4,0.6-2c0.5-1.3,0.9-2.7,1.5-3.9c2.2-5.1,5.5-9.5,9.5-13c1-0.9,2-1.6,3.1-2.4c1.1-0.7,2.2-1.4,3.3-2
		c0,0,0.8-0.4,0.5-0.3l0.2-0.1l0.3-0.2l0.7-0.3l0.7-0.3l0.2-0.1l0.3-0.1l0.5-0.2c0.7-0.3,1.4-0.5,2.1-0.8c0.4-0.1,0.7-0.2,1-0.3
		l0.9-0.3c2.5-0.7,5.1-0.9,7.6-1c1.3,0.1,2.5,0,3.7,0.2c0.6,0.1,1.2,0.2,1.8,0.3c0.6,0.1,1.2,0.3,1.8,0.4c1.2,0.2,2.3,0.7,3.4,1.1
		c1.1,0.4,2.2,0.9,3.2,1.4c2.1,1.1,4,2.3,5.7,3.8c0.4,0.4,0.8,0.7,1.3,1.1c0.4,0.4,0.8,0.8,1.2,1.2c0.4,0.4,0.8,0.8,1.1,1.2
		c0.3,0.4,0.7,0.9,1,1.3c0.7,0.8,1.2,1.8,1.8,2.6l0.4,0.7l0.1,0.2c-0.1-0.2,0.3,0.5,0.3,0.5l0.1,0.3c0.2,0.4,0.3,0.7,0.5,1.1
		l0.1,0.3l0.2,0.4l0.3,0.9c0.2,0.6,0.5,1.2,0.6,1.7c0.3,1,0.6,2.1,0.7,3.1c0.1,0.5,0.2,1,0.2,1.5c0,0.5,0.1,1,0.1,1.5c0.1,1,0,2,0,3
		c-0.3,4-1.5,7.6-3.3,10.7c-1.8,3.1-4.1,5.6-6.7,7.5c-0.6,0.5-1.3,0.9-1.9,1.3l-0.5,0.3l-0.2,0.1c-0.2,0.1,0.2-0.1-0.4,0.2l-0.1,0
		c-0.3,0.1-0.5,0.2-0.7,0.4l-0.4,0.2c-0.1,0-0.1,0.1-0.2,0.1l-0.3,0.1c-0.4,0.2-0.8,0.3-1.2,0.5l-0.6,0.2c-0.2,0.1-0.4,0.1-0.5,0.2
		c-0.4,0.1-0.7,0.2-1.1,0.3c-2.9,0.7-5.6,0.7-8,0.3c-2.4-0.4-4.5-1.2-6.3-2.1c-3.5-1.9-5.7-4.2-6.9-5.8c-0.6-0.8-1-1.5-1.3-1.9
		c-0.3-0.4-0.4-0.7-0.4-0.7l-3.1-5.1l9.9-5.7l3.5,4.8c0,0,0.1,0.1,0.2,0.3c0.1,0.2,0.3,0.5,0.6,0.8c0.6,0.7,1.5,1.5,3,2.3
		c1.5,0.6,3.6,1.1,5.8,0.4l0.4-0.1c0.1,0,0.2,0,0.2-0.1l0.1-0.1c0.2-0.1,0.2,0,0.8-0.4c0.2-0.1,0.5-0.3,0.7-0.4l0.1,0
		c-0.6,0.3-0.1,0.1-0.2,0.1l0.1-0.1l0.2-0.2c0.3-0.2,0.6-0.4,0.9-0.7c1.2-1,2.2-2.2,3-3.7c0.8-1.5,1.3-3.2,1.3-5.1
		c0-0.5,0-0.9-0.1-1.4l-0.1-0.7l-0.2-0.7c-0.1-0.5-0.3-0.9-0.4-1.4c-0.1-0.2-0.2-0.3-0.2-0.5l-0.1-0.2c0,0,0-0.1,0-0.1l-0.1-0.3
		c-0.2-0.3-0.4-0.7-0.6-1.1l-0.1-0.3c-0.1-0.1,0.3,0.5,0.1,0.2l-0.1-0.1l-0.2-0.3c-0.3-0.5-0.6-0.9-1-1.4l-0.6-0.7
		c-0.2-0.2-0.4-0.4-0.6-0.6c-0.2-0.2-0.4-0.4-0.6-0.6l-0.7-0.5c-0.9-0.7-2-1.3-3-1.8c-0.6-0.2-1.1-0.5-1.7-0.6
		c-0.6-0.1-1.2-0.4-1.8-0.4l-0.9-0.2l-0.9-0.1c-0.6-0.1-1.3,0-1.9,0c-1.3,0.1-2.5,0.3-3.8,0.7l-0.5,0.1c-0.2,0-0.3,0.1-0.4,0.1
		c-0.2,0.1-0.4,0.2-0.7,0.3l-0.2,0.1l-0.1,0l-0.2,0.1l-0.7,0.4l-0.7,0.4l-0.3,0.2l-0.2,0.1c-0.4,0.2,0.3-0.2,0.2-0.1
		c-0.6,0.4-1.2,0.8-1.8,1.3c-0.5,0.5-1.1,0.9-1.7,1.5c-2.1,2.1-3.8,4.6-4.9,7.5c-0.3,0.7-0.5,1.5-0.7,2.2c-0.1,0.4-0.2,0.8-0.2,1.1
		l-0.2,1.2l-0.1,1.2c0,0.4-0.1,0.8-0.1,1.2c0,0.8,0,1.6,0.1,2.4l0.1,1.2l0.3,1.2c0.1,0.8,0.4,1.5,0.6,2.3c0.1,0.4,0.3,0.6,0.4,0.9
		l0.4,0.9l0.8,1.5l0.4,0.8l0.1,0.2c-0.4-0.7-0.1-0.1-0.1-0.3l0.2,0.3c1.9,3,4.4,5.6,7.4,7.7c6,4.1,13.9,5.7,21.2,4
		c0.5-0.1,0.9-0.3,1.4-0.4l1.3-0.4c0.8-0.3,1.4-0.6,2.2-0.9l1.7-0.9l0.9-0.5l0.4-0.2c0.5-0.3-0.4,0.2-0.3,0.1l0.2-0.1
		c0.8-0.6,1.7-1.2,2.5-1.7c3.3-2.5,6.1-5.6,8.3-9.1c4.5-7,6.3-15.8,4.8-24.1l-0.3-1.6c-0.1-0.5-0.2-1-0.4-1.5l-0.5-1.5l-0.2-0.8
		c0-0.1-0.1-0.3-0.1-0.4l-0.1-0.3c-0.2-0.4-0.4-0.8-0.5-1.2l-0.2-0.6c-0.1-0.2-0.1-0.4-0.3-0.7c-0.6-1.1-1.2-2.2-1.8-3.3
		c-1.2-1.9-2.6-3.8-4-5.5c-1.5-1.7-3.1-3.3-4.8-4.8c-6.9-6-15.8-9.7-24.9-10.5c-2.3-0.2-4.6-0.2-6.9,0c-2.3,0.2-4.5,0.5-6.8,1
		c-2.2,0.5-4.4,1.2-6.5,2.1c-0.5,0.2-1,0.5-1.6,0.7l-0.8,0.3l-0.6,0.3l-0.6,0.3l-0.3,0.2l-0.5,0.3l-1.9,1.1c0.5-0.3,0,0,0.1,0
		l-0.2,0.1l-0.4,0.2l-0.8,0.5c-0.5,0.3-1,0.6-1.5,1c-1,0.7-2,1.4-2.9,2.2c-1.9,1.5-3.6,3.2-5.3,4.9c-0.8,0.9-1.7,1.7-2.4,2.7
		l-1.2,1.4l-1.1,1.4l-0.5,0.7l-0.5,0.7l-1,1.5l-0.9,1.5c-0.3,0.5-0.6,1-0.9,1.6c-4.7,8.4-7.1,17.9-7.1,27.3
		c0.1,4.7,0.6,9.4,1.9,13.9c0.3,1.1,0.6,2.2,1,3.3c0.3,1.1,0.8,2.2,1.2,3.3c0.4,1.1,0.9,2.1,1.4,3.1l0.7,1.3l0.3,0.7l0.5,0.9
		l1.1,1.9l0.1,0.2c0.1,0.2-0.3-0.5-0.1-0.1l0.2,0.4l0.5,0.8c0.7,1,1.3,2,2,3c0.7,1,1.4,2,2.2,2.9c0.8,0.9,1.5,1.9,2.3,2.8
		c3.2,3.6,6.6,6.8,10.4,9.7c7.5,5.7,16,9.8,24.8,12.1c8.8,2.3,17.8,2.9,26.3,1.9c4.3-0.5,8.4-1.4,12.4-2.7c1-0.3,2-0.7,3-1
		c1-0.4,1.9-0.8,2.9-1.1c1-0.4,1.9-0.8,2.8-1.3l0.7-0.3l0.6-0.3l1.2-0.6l0.6-0.3l0.3-0.1l0.4-0.2l1.7-1l1.7-1l0.2-0.1
		c-0.8,0.4-0.1,0.1-0.2,0.1l0.3-0.2l0.7-0.4c0.9-0.6,1.8-1.1,2.7-1.7c0.9-0.6,1.7-1.2,2.5-1.8l1.3-0.9l1.2-1
		c0.8-0.6,1.6-1.3,2.4-1.9c0.8-0.7,1.5-1.4,2.3-2l1.1-1l1.1-1.1c0.7-0.7,1.4-1.4,2.1-2.1c0.7-0.7,1.3-1.5,2-2.2l1-1.1l0.9-1.1
		c0.6-0.7,1.2-1.5,1.9-2.2c2.3-3.1,4.6-6.1,6.4-9.3c1-1.5,1.8-3.2,2.7-4.8c0.5-0.8,0.8-1.6,1.2-2.4c0.4-0.8,0.8-1.6,1.2-2.4
		c1.4-3.2,2.7-6.4,3.7-9.6c2-6.4,3.3-12.6,3.8-18.5c1.2-11.8-0.3-22.1-2.3-30.3c-0.6-2-1-4-1.7-5.7c-0.3-0.9-0.6-1.7-0.9-2.6
		c-0.3-0.8-0.6-1.6-0.9-2.4c-0.6-1.5-1.2-2.9-1.8-4.2c-0.3-0.6-0.5-1.3-0.8-1.8c-0.3-0.5-0.5-0.9-0.7-1.4c-0.2-0.4-0.4-0.8-0.6-1.2
		c-0.1-0.2-0.2-0.4-0.3-0.6c-0.1-0.2-0.3-0.5-0.4-0.7c-0.5-0.9-1-1.7-1.3-2.3c-0.7-1.3-1.1-1.9-1.1-1.9l-11.2-19.6l40.5-22
		L940.1,116.1z"/>
	<g>
		<path fill="#414042" d="M1061.8,309.6c0,0-0.5-0.5-1.5-1.5c-1-1-2.5-2.4-4.3-4.5c-3.7-4-8.9-10.3-14-19.2
			c-1.3-2.2-2.5-4.7-3.8-7.2c-1.2-2.6-2.4-5.3-3.5-8.2c-2.2-5.8-4.2-12.3-5.5-19.4c-1.3-7.1-2.1-14.8-2-23
			c0.1-8.2,1.2-16.7,3.3-25.5c2.1-8.7,5.4-17.6,9.9-26.2c0.5-1.1,1.2-2.1,1.8-3.2c0.6-1.1,1.2-2.1,1.9-3.2c0.7-1,1.3-2.1,2-3.1
			c0.7-1.1,1.4-2.1,2.1-3.1c0.7-1,1.5-2,2.2-3.1c0.8-1,1.6-2,2.4-3l1.2-1.5c0.4-0.5,0.8-1,1.3-1.4c0.9-1,1.7-1.9,2.6-2.9
			c0.9-1,1.8-1.9,2.7-2.8l1.4-1.4l0.3-0.4c0,0,0.2-0.2,0.3-0.2l0.2-0.2l0.7-0.6c0.9-0.9,1.8-1.7,2.8-2.6c1-0.9,2.1-1.7,3.1-2.6
			c4.2-3.3,8.7-6.4,13.5-9c9.6-5.3,20.4-9,31.7-10.7c11.3-1.7,23.1-1.4,34.6,1.1c11.5,2.5,22.8,7.2,32.8,13.9c5,3.4,9.7,7.2,14,11.5
			c4.3,4.2,8.3,9.1,11.6,14.4c3.3,5.3,5.9,10.9,7.9,16.8c1.9,5.9,3.2,12,3.7,18.2c0.5,6.2,0.2,12.5-0.7,18.6
			c-1,6.1-2.7,12.2-5.1,17.9c-2.4,5.7-5.5,11.1-9.2,16.1c-0.9,1.3-1.9,2.4-2.9,3.6c-1,1.2-2,2.3-3.1,3.4l-1.6,1.6l-0.8,0.8l-0.2,0.2
			l-0.3,0.3l-0.4,0.4l-1.6,1.4l-1.9,1.6c-9.8,7.9-21.7,12.7-33.9,13.8c-12.2,1.1-24.5-1.3-35-6.8c-5.3-2.7-10.1-6.2-14.3-10.2
			l-1.5-1.5l-0.8-0.8c-0.4-0.4-0.2-0.2-0.3-0.4l-0.2-0.2l-0.3-0.4c-0.9-1-1.7-2-2.6-3.1c-0.9-1.3-1.8-2.5-2.7-3.8
			c-0.5-0.6-0.8-1.3-1.1-1.9l-1.1-1.9c-2.7-5.2-4.5-10.7-5.4-16.3c-0.9-5.6-0.7-11.3,0.2-16.7l0.4-2c0.2-0.7,0.3-1.3,0.5-2l0.5-2
			l0.3-1l0.4-1c0.5-1.3,0.9-2.5,1.5-3.8c0.6-1.2,1.2-2.4,1.8-3.6c2.6-4.7,5.8-9,9.5-12.6l0.3-0.3c0,0,0.4-0.4,0.3-0.3l0.2-0.1
			l0.7-0.6l1.3-1.1l0.7-0.6l0.8-0.6l1.7-1.2c1.1-0.8,2.3-1.4,3.4-2c0.6-0.3,1.1-0.7,1.7-0.9l1.8-0.8c4.7-2,9.6-3.1,14.5-3.3
			c4.9-0.2,9.7,0.4,14.2,1.8c4.5,1.4,8.6,3.5,12.2,6.1c0.9,0.7,1.8,1.4,2.6,2c0.8,0.7,1.6,1.5,2.4,2.2l0.6,0.6l0.1,0.1
			c-0.1-0.1,0.3,0.3,0.3,0.3l0.2,0.3l0.9,1.1l0.5,0.5c0.2,0.2,0.3,0.3,0.5,0.6c0.3,0.5,0.7,0.9,1,1.4c0.3,0.5,0.7,0.9,1,1.4
			c0.3,0.5,0.5,0.9,0.8,1.4c0.3,0.5,0.5,0.9,0.8,1.4c0.2,0.5,0.4,1,0.6,1.4c0.2,0.5,0.4,1,0.6,1.4c0.2,0.5,0.3,1,0.5,1.5
			c0.3,1,0.6,1.9,0.8,2.9c0.9,3.9,1,7.9,0.5,11.6c-0.5,3.7-1.6,7.2-3.1,10.3c-0.4,0.8-0.8,1.5-1.2,2.2c-0.5,0.7-0.9,1.4-1.4,2.1
			c-0.4,0.7-1,1.3-1.5,1.9c-0.5,0.6-1,1.3-1.6,1.8c-2.2,2.3-4.4,4-7.1,5.4c-2.5,1.3-5.1,2.1-7.5,2.5c-2.4,0.5-4.8,0.4-6.9,0.2
			c-4.2-0.5-7.6-1.9-10-3.4c-0.6-0.4-1.2-0.7-1.7-1.1c-0.5-0.4-1-0.7-1.4-1.1c-0.8-0.8-1.4-1.3-1.9-1.9c-0.9-1.1-1.4-1.7-1.4-1.7
			s0.6,0.4,1.7,1.3c0.6,0.4,1.3,0.8,2.2,1.4c0.9,0.4,1.9,1,3.2,1.4c2.5,0.9,5.6,1.6,9.3,1.5c3.6-0.2,7.8-1.3,11.5-3.9
			c1.7-1.2,3.6-2.9,5.1-4.9c1.5-2,3-4.2,3.9-6.7c1-2.5,1.6-5.2,1.9-8.1c0.2-2.9-0.1-5.9-0.9-8.8c-0.1-0.7-0.5-1.5-0.7-2.2
			c-0.1-0.4-0.2-0.7-0.4-1.1l-0.5-1.1c-0.2-0.4-0.3-0.7-0.5-1.1l-0.6-1l-0.6-1c-0.2-0.3-0.4-0.6-0.6-0.9l-0.6-0.9
			c-0.1-0.1-0.3-0.3-0.4-0.5l-0.5-0.5l-1-1.1l-0.2-0.3c-0.1-0.1,0.2,0.2,0,0l-0.1-0.1l-0.5-0.4c-0.6-0.6-1.3-1.2-1.9-1.8
			c-0.7-0.5-1.4-1-2.1-1.6c-2.9-2-6.1-3.6-9.6-4.7c-3.5-1.1-7.3-1.5-11.1-1.3c-3.8,0.2-7.7,1.1-11.3,2.7l-1.4,0.6
			c-0.5,0.2-0.9,0.5-1.3,0.7c-0.8,0.5-1.8,1-2.5,1.5l-1.1,0.8l-0.6,0.4l-0.7,0.6l-1.3,1.2l-0.7,0.6l-0.2,0.1c-0.2,0.2,0.1-0.1,0,0
			l-0.3,0.3c-3,3-5.5,6.5-7.6,10.3c-0.5,1-0.9,2-1.4,2.9c-0.4,1-0.8,2.1-1.1,3.1l-0.3,0.8l-0.2,0.8l-0.4,1.6
			c-0.1,0.5-0.3,1.1-0.4,1.6l-0.3,1.7c-0.7,4.4-0.8,9,0,13.5c0.8,4.5,2.3,8.9,4.5,13.1l0.9,1.5c0.3,0.5,0.6,1.1,0.9,1.5
			c0.6,0.9,1.3,1.8,1.9,2.7c0.8,1,1.7,2,2.6,3l0.3,0.4l0.2,0.2c0,0,0.3,0.3,0,0l0.7,0.6l1.3,1.3c3.6,3.3,7.6,6.2,12,8.4
			c8.8,4.5,19.1,6.5,29.3,5.5c2.5-0.2,5.1-0.7,7.6-1.3c2.5-0.6,4.9-1.4,7.3-2.4c2.4-0.9,4.7-2.1,6.9-3.4c2.2-1.3,4.4-2.8,6.4-4.4
			l1.4-1.2l1.6-1.4l0.4-0.4c0,0,0.2-0.2,0.1-0.1l0.2-0.2l0.7-0.7l1.4-1.4c0.9-1,1.8-2,2.7-3c0.8-1.1,1.7-2,2.5-3.1
			c3.2-4.3,5.9-9,8-13.9c2.1-4.9,3.6-10.1,4.5-15.5c0.9-5.3,1.1-10.7,0.7-16.1c-0.4-5.4-1.5-10.7-3.1-15.9c-1.7-5.1-4-10.1-6.8-14.6
			c-2.8-4.6-6.2-8.7-10-12.6c-3.8-3.9-8-7.3-12.5-10.4c-8.9-6.1-18.9-10.5-29.3-12.8c-10.4-2.4-21-2.8-31.3-1.4
			c-10.3,1.4-20.1,4.6-28.9,9.4c-4.4,2.4-8.6,5.1-12.4,8c-0.9,0.8-1.8,1.5-2.8,2.2c-0.9,0.8-1.9,1.7-2.8,2.5l-0.7,0.6l-0.2,0.2
			c-0.1,0.1,0,0-0.1,0.1l-0.3,0.3l-1.3,1.3c-0.9,0.9-1.7,1.7-2.6,2.6c-6.6,7-12.2,14.6-16.5,22.6c-1.1,2-2.2,4-3.1,6
			c-0.5,1-1,2-1.4,3c-0.4,1-0.8,2-1.3,3.1l-0.6,1.5l-0.6,1.5c-0.4,1-0.7,2-1.1,3c-0.7,2-1.3,4.1-1.9,6.1c-2.3,8.1-3.5,16.2-3.9,23.9
			c-0.5,7.7-0.1,15.1,0.8,22c0.9,6.9,2.4,13.2,4.2,19c0.9,2.9,1.9,5.6,2.9,8.2c1.1,2.5,2.1,5,3.2,7.2c0.6,1.1,1.1,2.2,1.6,3.3
			c0.6,1,1.1,2.1,1.7,3c0.3,0.5,0.5,1,0.8,1.5c0.3,0.5,0.6,0.9,0.8,1.4c0.5,0.9,1.1,1.8,1.6,2.6c2.1,3.3,4,6,5.7,8.2
			c1.6,2.2,3,3.8,3.9,4.9C1061.3,309,1061.8,309.6,1061.8,309.6z"/>
		<path fill="#414042" d="M1194.1,87c0,0,0.7,0.4,2.1,1.1c1.4,0.7,3.5,1.7,6.1,3.2c5.3,3,12.8,7.7,21.3,15.4c2.2,1.9,4.2,4,6.5,6.2
			c2.1,2.3,4.4,4.7,6.5,7.4c4.3,5.4,8.6,11.5,12.5,18.5c3.8,7,7.3,14.8,10,23.4c2.7,8.6,4.5,17.9,5.3,27.8
			c0.8,9.9,0.4,20.3-1.4,30.9c-0.2,1.3-0.5,2.6-0.8,4c-0.3,1.3-0.5,2.7-0.8,4c-0.3,1.3-0.7,2.6-1,4c-0.2,0.7-0.3,1.3-0.5,2l-0.6,2
			c-0.4,1.3-0.8,2.6-1.2,4c-0.5,1.3-1,2.6-1.4,3.9l-0.7,2c-0.3,0.7-0.6,1.3-0.8,2c-0.6,1.3-1.1,2.6-1.7,3.9
			c-0.6,1.3-1.2,2.6-1.9,3.9l-1,1.9l-0.2,0.5c0,0-0.1,0.3-0.2,0.3l-0.1,0.2l-0.5,0.9c-0.7,1.2-1.3,2.4-2.1,3.7
			c-0.8,1.3-1.6,2.5-2.4,3.8c-3.3,4.9-6.9,9.7-11.1,14.1c-8.2,8.9-18.3,16.5-29.5,22.1c-11.2,5.7-23.7,9.4-36.6,10.7
			c-12.9,1.4-26.3,0.3-39-3.3c-6.4-1.8-12.6-4.2-18.6-7.2c-5.9-2.9-11.8-6.7-17-11c-5.2-4.4-9.9-9.3-14-14.8
			c-4-5.5-7.4-11.5-10.1-17.8c-2.6-6.3-4.5-12.9-5.6-19.7c-1.1-6.7-1.3-13.6-0.8-20.4c0.5-6.8,2-13.5,4.1-20
			c0.2-0.8,0.5-1.6,0.8-2.4l0.9-2.4c0.6-1.6,1.3-3.1,2-4.7l1.1-2.3l0.6-1.1l0.1-0.3l0.2-0.4l0.3-0.5l1.2-2.1l1.4-2.2
			c7.5-11.6,18.3-20.6,30.6-26c12.3-5.4,25.9-7,38.8-5c6.4,1,12.6,3,18.4,5.6l2.1,1.1l1.1,0.5l1.1,0.6l1,0.5l0.5,0.3l0.5,0.3
			c0.7,0.5,1.4,0.9,2.1,1.4c2.7,1.8,5.1,3.8,7.4,6.1c9.2,8.8,15,20.6,16.7,32.6c0.4,3,0.6,6,0.6,9c0,3-0.3,5.9-0.8,8.8
			c-1,5.8-2.9,11.3-5.5,16.3l-0.2,0.5c0,0-0.3,0.5-0.2,0.4l-0.1,0.2l-0.5,0.8l-1,1.7l-0.5,0.8l-0.7,0.9l-1.3,1.8
			c-0.9,1.3-1.9,2.2-2.8,3.3c-0.5,0.5-0.9,1.1-1.5,1.5l-1.6,1.4c-4.2,3.7-9,6.5-14,8.4c-5,1.9-10.2,2.9-15.3,3
			c-5.1,0.1-10.1-0.7-14.8-2.1c-1.1-0.4-2.3-0.8-3.4-1.2c-1.1-0.5-2.2-1-3.2-1.5l-0.8-0.4l-0.2-0.1c0.1,0.1-0.4-0.2-0.4-0.2
			l-0.3-0.2c-0.5-0.3-0.9-0.6-1.4-0.8l-0.7-0.4c-0.2-0.1-0.4-0.3-0.7-0.5c-0.5-0.4-1-0.7-1.5-1.1c-0.5-0.4-1-0.7-1.5-1.1
			c-0.4-0.4-0.9-0.8-1.3-1.2c-0.4-0.4-0.8-0.8-1.3-1.2c-0.4-0.4-0.8-0.9-1.1-1.3c-0.4-0.4-0.7-0.9-1.1-1.3c-0.4-0.4-0.7-0.9-1-1.4
			c-0.6-0.9-1.3-1.8-1.8-2.8c-2.3-3.8-3.8-7.8-4.5-11.8c-0.8-4-0.8-8-0.3-11.7c0.2-0.9,0.3-1.8,0.5-2.7c0.2-0.9,0.5-1.8,0.7-2.6
			c0.2-0.9,0.6-1.7,0.9-2.5c0.2-0.4,0.3-0.8,0.5-1.2l0.2-0.6l0.3-0.6c1.5-3.1,3.2-5.7,5.5-8.1c2.1-2.3,4.6-4,6.9-5.3
			c2.4-1.3,4.8-2.1,7.1-2.6c4.6-1,8.6-0.7,11.6,0c0.8,0.2,1.5,0.3,2.1,0.6c0.7,0.2,1.3,0.4,1.8,0.6c1.1,0.5,2,0.9,2.7,1.3
			c1.3,0.8,2,1.2,2,1.2s-0.8-0.3-2.2-0.8c-0.7-0.2-1.7-0.4-2.8-0.7c-0.6-0.1-1.2-0.2-1.8-0.3c-0.6-0.1-1.3-0.2-2.1-0.2
			c-2.9-0.1-6.5,0.2-10.4,1.6c-3.8,1.5-7.8,4-10.9,8c-1.4,1.9-2.9,4.3-3.8,7c-0.9,2.7-1.7,5.5-1.8,8.5c-0.2,3,0.1,6.2,0.8,9.3
			c0.7,3.1,2.1,6.2,4,9.1c0.4,0.8,1,1.4,1.5,2.1c0.3,0.3,0.5,0.7,0.8,1l0.9,1c0.3,0.3,0.6,0.7,0.9,1l1,0.9l1,0.9
			c0.3,0.3,0.7,0.5,1,0.7l1,0.7c0.1,0.1,0.4,0.3,0.6,0.4l0.7,0.4c0.5,0.3,0.9,0.5,1.4,0.8l0.3,0.2c0.1,0.1-0.3-0.1,0,0l0.2,0.1
			l0.7,0.3c0.9,0.4,1.7,0.8,2.6,1.2c0.9,0.3,1.8,0.6,2.8,0.9c3.8,1.1,7.8,1.7,11.9,1.6c4.1-0.1,8.3-1,12.3-2.5
			c4-1.6,7.8-3.9,11.1-6.8l1.2-1.1c0.4-0.4,0.8-0.8,1.1-1.2c0.7-0.8,1.6-1.7,2.1-2.5l0.9-1.3l0.5-0.6l0.5-0.8l1-1.7l0.5-0.8l0.1-0.2
			c0.1-0.3-0.1,0.1,0,0l0.2-0.4c4.3-8.4,6.1-18.4,4.5-28.3c-1.5-9.9-6.4-19.5-14-26.7c-1.9-1.8-4-3.4-6.2-4.9
			c-0.5-0.4-1.1-0.7-1.6-1l-0.4-0.3l-0.5-0.3l-1-0.5l-0.8-0.5l-0.9-0.4l-1.8-0.9c-5-2.3-10.2-3.9-15.7-4.8
			c-10.9-1.7-22.6-0.3-33,4.3c-2.6,1.1-5.1,2.5-7.6,4c-2.4,1.5-4.8,3.2-6.9,5.1c-2.2,1.8-4.3,3.9-6.2,6.1c-1.9,2.1-3.7,4.5-5.2,6.9
			l-1.1,1.8l-1.2,2.1l-0.3,0.5c0,0-0.2,0.3-0.1,0.1l-0.1,0.2l-0.5,1l-1,2c-0.6,1.4-1.2,2.7-1.8,4.1l-0.8,2.1
			c-0.3,0.7-0.5,1.4-0.7,2.1c-1.9,5.7-3.1,11.5-3.6,17.5c-0.5,6-0.3,12,0.6,17.9c0.9,5.9,2.6,11.8,4.8,17.3
			c2.3,5.5,5.3,10.8,8.8,15.7c3.6,4.8,7.7,9.3,12.3,13.1c4.6,3.9,9.6,7.1,15,9.8c5.4,2.7,11,5,16.8,6.6c11.5,3.4,23.7,4.5,35.4,3.3
			c11.8-1.1,23.2-4.4,33.5-9.4c10.3-5.1,19.6-11.9,27.2-19.9c3.8-4,7.3-8.3,10.3-12.8c0.7-1.1,1.4-2.2,2.1-3.3
			c0.7-1.1,1.4-2.4,2.1-3.6l0.5-0.9l0.1-0.2c0.1-0.1,0,0,0.1-0.1l0.2-0.5l0.9-1.8c0.6-1.2,1.2-2.4,1.8-3.6
			c4.5-9.7,7.8-19.6,9.6-29.5c0.4-2.5,0.9-4.9,1.1-7.4c0.1-1.2,0.3-2.5,0.4-3.7c0.1-1.2,0.2-2.4,0.3-3.7l0.1-1.8l0.1-1.8
			c0-1.2,0.1-2.4,0.1-3.6c0-1.2,0-2.4,0-3.6c0-1.2,0-2.4-0.1-3.5c-0.5-9.4-2-18.3-4.2-26.6c-2.2-8.3-5.2-15.9-8.6-22.8
			c-3.4-6.9-7.2-13-11.1-18.4c-1.9-2.7-4-5.2-5.9-7.6c-2-2.3-3.9-4.5-5.9-6.5c-1-1-1.9-2-2.9-2.9c-1-0.9-1.9-1.8-2.8-2.6
			c-0.5-0.4-0.9-0.8-1.3-1.3c-0.5-0.4-0.9-0.8-1.4-1.1c-0.9-0.8-1.7-1.5-2.6-2.2c-3.4-2.7-6.4-4.9-8.8-6.6c-2.4-1.8-4.4-2.9-5.8-3.8
			C1194.7,87.5,1194.1,87,1194.1,87z"/>
	</g>
	<g>
		<path fill="#414042" d="M321.6,458.1c6.9,4.1,12.6,1.1,12.7-6.8c0.1-7.9-5.3-17.6-12.2-21.7c-6.9-4.1-12.6-1.1-12.7,6.8
			C309.2,444.3,314.7,454,321.6,458.1z"/>
		<path fill="#414042" d="M280.5,427.4c-0.4,21.6,14.7,48.3,33.6,59.7c19,11.3,34.7,3,35.1-18.6c0.4-21.6-14.7-48.3-33.6-59.7
			C296.6,397.5,280.9,405.8,280.5,427.4z M342.5,459.2c-0.3,14.6-10.9,20.2-23.7,12.6c-12.8-7.7-23-25.7-22.8-40.3
			c0.3-14.6,10.9-20.2,23.7-12.6C332.6,426.6,342.8,444.6,342.5,459.2z"/>
		<path fill="#414042" d="M337.1,428.2c0.3,0.5,0.6,0.9,0.9,1.4C337.7,429.2,337.5,428.7,337.1,428.2z"/>
		<path fill="#414042" d="M340.9,434.4c-1.2-2-1.5-2.6-2.9-4.8c1.3,2.1,2.5,4.2,3.7,6.3C341.5,435.5,341.2,435,340.9,434.4z"/>
		<path fill="#414042" d="M341.7,435.9c0.3,0.6,0.6,1.1,0.9,1.7C342.3,437.1,342.1,436.5,341.7,435.9z"/>
		<path fill="#414042" d="M249.2,423.8c-0.6,33.2,22.6,74.3,51.7,91.7c29.2,17.4,53.3,4.6,53.9-28.6c0-2.1,0-4.2-0.2-6.3l-0.5-5.4
			c-0.5-4.4-0.6-4.9-2.1-12.2c-0.9-3.7-1-4-3-10.6c-1.1-3.2-1.2-3.4-3.7-9.4c-1-2.3-1.3-2.8-2.7-5.5c6.7,12.9,10.7,26.9,10.4,39.6
			c-0.5,27.4-20.4,38-44.5,23.6c-24.1-14.4-43.2-48.3-42.7-75.8c0.5-27.4,20.4-38,44.5-23.6c10.2,6.1,19.5,15.7,26.8,26.8
			c-0.4-0.6-0.8-1.2-1.3-2c-1.9-2.8-1.9-2.8-6-8c-2.3-2.8-2.3-2.8-7.3-7.9c-3-2.9-3-2.9-9-7.9c-2.2-1.7-5.1-3.7-7.4-5.3
			c-1-0.6-2-1.3-3-1.9C273.9,377.8,249.8,390.6,249.2,423.8z"/>
		<path fill="#414042" d="M293,528.4c-33.2-19.8-59.5-66.5-58.8-104.4c0.6-33.3,21.9-48.5,49.6-38.2c-4.9-1.8-4.9-1.8-14.7-4.3
			c-2.4-0.5-5.6-1-8-1.4c-24.8-3.5-42.8,13.5-43.3,45.6c0.1,6.8,0.3,22.8,8.8,44.9c26,67.1,96.5,110.4,120.6,57.7
			c2-5.1,2.1-5.5,4.8-15.2h0c0.3-1.4,0.7-3,1-4.6C346.9,536.6,322.2,545.8,293,528.4z"/>
		<path fill="#414042" d="M353.5,505.4c-0.2,0.9-0.4,2-0.6,3.1C353.2,507.5,353.4,506.5,353.5,505.4z"/>
		<path fill="#414042" d="M273.4,552.6c-39.5-23.6-70.9-79.2-70.1-124.2c0.6-30.5,15.7-48.3,37.7-49.3c-8,0.5-9.1,0.7-19.5,2.7
			l-1.9,0.5c-18.6,4.7-30.9,22.5-31.4,50.6c-0.9,47.3,32.1,105.7,73.6,130.5c25.9,15.4,48.9,14.2,62.9-0.3c2.6-2.8,5.9-6.8,8.3-9.8
			c1.2-1.5,2.5-3.4,3.6-5.2C324,565.8,300.3,568.7,273.4,552.6z"/>
		<path fill="#414042" d="M338.1,546.1c-0.4,0.6-0.9,1.3-1.4,2C337.2,547.5,337.6,546.8,338.1,546.1z"/>
		<path fill="#414042" d="M250.9,571.8c-42.5-25.4-76.2-85.1-75.3-133.5c0.4-24.5,9.7-41.3,24.2-48.7c-2.7,1.3-5.8,3-8.2,4.3
			c-2.8,1.7-6.4,4.1-9.2,5.9c-12.9,10.6-18.1,23-19.3,45.8c-0.9,48.4,32.8,108.1,75.3,133.5c20.2,12.1,38.8,14.2,52.8,7.8
			c3-1.4,6.8-3.5,9.7-5c2.2-1.3,4.9-3.1,7.3-4.7C293.8,586.3,273.3,585.2,250.9,571.8z"/>
		<path fill="#414042" d="M310,575.9c-0.6,0.4-1.2,0.8-1.8,1.2C308.8,576.8,309.4,576.4,310,575.9z"/>
		<path fill="#414042" d="M153.7,453c0.3-17.8,5.4-31.6,13.9-40.4c-2.2,2.4-5,5.7-7.1,8.2c-2,2.6-4.4,6.1-6.2,8.8
			c-6.3,11.2-7.6,18.6-8.4,32.2c-0.8,45,30.5,100.6,70.1,124.2c12.8,7.6,24.8,11,35.3,10.5c8-0.5,9.1-0.7,19.5-2.7l1.9-0.5
			C225.8,604.8,155.1,532.8,153.7,453z"/>
		<path fill="#414042" d="M141,470.2c0.3-11.4,2.1-16.6,4.1-22.8c-1.4,3.9-3.1,9.1-4.3,13c-0.7,3-1.5,6.9-2.1,9.9
			c-0.5,3-0.7,6.1-0.8,9.4c-0.7,37.8,25.7,84.5,58.8,104.3c4,2.4,7.9,4.3,11.7,5.7c4.9,1.8,4.9,1.8,14.7,4.3
			c1.7,0.4,3.9,0.8,5.9,1.1c-7.1-1.3-14.8-4.3-22.7-9C169.5,564.2,140.2,512.3,141,470.2z"/>
		<path fill="#414042" d="M231.3,595.6c-0.7-0.1-1.4-0.2-2.1-0.4C229.9,595.4,230.6,595.5,231.3,595.6z"/>
		<path fill="#414042" d="M137.6,495l0.5,5.4c0.5,4.4,0.6,4.9,2.1,12.2c0.9,3.7,1,4,3,10.6c1.1,3.2,1.2,3.4,3.7,9.4
			c1.3,3,1.3,3,4.4,8.7c1.6,2.8,1.6,2.8,5.1,8.2c1.9,2.8,1.9,2.8,6,8c2.3,2.8,2.3,2.8,7.3,7.9c3,2.9,3,2.9,9,7.9
			c1.4,1.1,3.2,2.4,4.9,3.6C167.5,565,141.7,536.2,137.6,495z"/>
		<path fill="#414042" d="M186.3,578.6c-0.7-0.5-1.6-1.1-2.4-1.7C184.7,577.5,185.5,578.1,186.3,578.6z"/>
	</g>
	<g>
		<circle fill="#414042" cx="553.7" cy="518.9" r="4.3"/>
		<circle fill="#414042" cx="548.9" cy="499.9" r="4.4"/>
		<circle fill="#414042" cx="529.2" cy="495.3" r="4.6"/>
		<circle fill="#414042" cx="513.9" cy="508.1" r="4.7"/>
		<circle fill="#414042" cx="513.2" cy="528.7" r="4.8"/>
		<circle fill="#414042" cx="526" cy="544.2" r="4.9"/>
		<circle fill="#414042" cx="546.5" cy="548.2" r="5"/>
		<circle fill="#414042" cx="565.1" cy="540.4" r="5.1"/>
		<circle fill="#414042" cx="576.8" cy="523.2" r="5.2"/>
		<circle fill="#414042" cx="578.3" cy="502.4" r="5.4"/>
		<circle fill="#414042" cx="570.5" cy="483.7" r="5.5"/>
		<circle fill="#414042" cx="555.1" cy="470.1" r="5.6"/>
		<circle fill="#414042" cx="534.5" cy="464.5" r="5.7"/>
		<circle fill="#414042" cx="514" cy="466.8" r="5.8"/>
		<circle fill="#414042" cx="496" cy="476.2" r="5.9"/>
		<circle fill="#414042" cx="480.2" cy="496" r="6.1"/>
		<circle fill="#414042" cx="471.7" cy="520.7" r="6.2"/>
		<circle fill="#414042" cx="479.5" cy="552.4" r="6.4"/>
		<circle fill="#414042" cx="505.5" cy="583.5" r="6.6"/>
		<circle fill="#414042" cx="546.1" cy="595.7" r="6.9"/>
		<circle fill="#414042" cx="586.1" cy="587.6" r="7.1"/>
		<circle fill="#414042" cx="618" cy="562.5" r="7.3"/>
		<circle fill="#414042" cx="635.7" cy="523.9" r="7.6"/>
		<circle fill="#414042" cx="636.4" cy="482.3" r="7.8"/>
		<circle fill="#414042" cx="622" cy="444.3" r="8"/>
		<circle fill="#414042" cx="594.6" cy="413.9" r="8.3"/>
		<circle fill="#414042" cx="556.3" cy="395.3" r="8.5"/>
		<circle fill="#414042" cx="514.3" cy="390.5" r="8.7"/>
		<circle fill="#414042" cx="474.1" cy="398.3" r="8.9"/>
		<circle fill="#414042" cx="438.3" cy="417.5" r="9.2"/>
	</g>
	<g>
		<circle fill="#414042" cx="849.4" cy="499.7" r="2.8"/>
		<circle fill="#414042" cx="843.9" cy="512" r="2.8"/>
		<circle fill="#414042" cx="830.9" cy="516.1" r="2.8"/>
		<circle fill="#414042" cx="818.9" cy="509.8" r="2.8"/>
		<circle fill="#414042" cx="814.6" cy="496.8" r="2.8"/>
		<circle fill="#414042" cx="819.8" cy="484.2" r="2.8"/>
		<circle fill="#414042" cx="831.7" cy="477.7" r="2.8"/>
		<circle fill="#414042" cx="845.4" cy="480.1" r="2.8"/>
		<circle fill="#414042" cx="855" cy="489.6" r="2.8"/>
		<circle fill="#414042" cx="857.4" cy="503.3" r="2.8"/>
		<circle fill="#414042" cx="852" cy="515.9" r="2.8"/>
		<circle fill="#414042" cx="841" cy="523.8" r="2.8"/>
		<circle fill="#414042" cx="826.9" cy="524.7" r="2.8"/>
		<circle fill="#414042" cx="814.5" cy="518.8" r="2.8"/>
		<circle fill="#414042" cx="806.5" cy="507.9" r="2.8"/>
		<circle fill="#414042" cx="804.6" cy="493.9" r="2.8"/>
		<circle fill="#414042" cx="809.2" cy="480.9" r="2.8"/>
		<circle fill="#414042" cx="818.7" cy="471.2" r="2.8"/>
		<circle fill="#414042" cx="831.7" cy="466.5" r="2.8"/>
		<circle fill="#414042" cx="845.8" cy="467.8" r="2.8"/>
		<circle fill="#414042" cx="857.8" cy="474.4" r="2.8"/>
		<circle fill="#414042" cx="866.2" cy="485" r="2.8"/>
		<circle fill="#414042" cx="870" cy="498.5" r="2.8"/>
		<circle fill="#414042" cx="868.2" cy="512.6" r="2.8"/>
		<circle fill="#414042" cx="861.7" cy="524.7" r="2.8"/>
		<circle fill="#414042" cx="851.5" cy="533.6" r="2.8"/>
		<circle fill="#414042" cx="838.6" cy="538.5" r="2.8"/>
		<circle fill="#414042" cx="824.2" cy="538.5" r="2.8"/>
		<circle fill="#414042" cx="811.1" cy="533.9" r="2.8"/>
		<circle fill="#414042" cx="800.4" cy="525.5" r="2.8"/>
		<circle fill="#414042" cx="792.9" cy="514.1" r="2.8"/>
		<circle fill="#414042" cx="789.3" cy="500.6" r="2.8"/>
		<circle fill="#414042" cx="790.2" cy="486.3" r="2.8"/>
		<circle fill="#414042" cx="795.1" cy="473.4" r="2.8"/>
		<circle fill="#414042" cx="803.4" cy="462.6" r="2.8"/>
		<circle fill="#414042" cx="814.4" cy="454.6" r="2.8"/>
		<circle fill="#414042" cx="827.5" cy="450" r="2.8"/>
		<circle fill="#414042" cx="841.9" cy="449.5" r="2.8"/>
		<circle fill="#414042" cx="855.6" cy="452.8" r="2.8"/>
		<circle fill="#414042" cx="867.6" cy="459.4" r="2.8"/>
		<circle fill="#414042" cx="877.4" cy="468.8" r="2.8"/>
		<circle fill="#414042" cx="884.5" cy="480.5" r="2.8"/>
		<circle fill="#414042" cx="888.4" cy="493.9" r="2.8"/>
		<circle fill="#414042" cx="888.7" cy="508.3" r="2.8"/>
		<circle fill="#414042" cx="885.4" cy="522" r="2.8"/>
		<circle fill="#414042" cx="879.2" cy="534.2" r="2.8"/>
		<circle fill="#414042" cx="870.4" cy="544.6" r="2.8"/>
		<circle fill="#414042" cx="859.4" cy="552.7" r="2.8"/>
		<circle fill="#414042" cx="846.6" cy="558" r="2.8"/>
		<circle fill="#414042" cx="832.6" cy="560.2" r="2.8"/>
		<circle fill="#414042" cx="818.2" cy="559.1" r="2.8"/>
		<circle fill="#414042" cx="804.9" cy="555" r="2.8"/>
		<circle fill="#414042" cx="792.9" cy="548.2" r="2.8"/>
		<circle fill="#414042" cx="782.7" cy="539.2" r="2.8"/>
		<circle fill="#414042" cx="774.6" cy="528.3" r="2.8"/>
		<circle fill="#414042" cx="768.9" cy="515.7" r="2.8"/>
		<circle fill="#414042" cx="766" cy="501.9" r="2.8"/>
		<circle fill="#414042" cx="766" cy="487.4" r="2.8"/>
		<circle fill="#414042" cx="768.9" cy="473.6" r="2.8"/>
		<circle fill="#414042" cx="774.3" cy="460.9" r="2.8"/>
		<circle fill="#414042" cx="782" cy="449.6" r="2.8"/>
		<circle fill="#414042" cx="791.5" cy="439.9" r="2.8"/>
		<circle fill="#414042" cx="802.8" cy="432.2" r="2.8"/>
		<circle fill="#414042" cx="815.4" cy="426.6" r="2.8"/>
		<circle fill="#414042" cx="829.2" cy="423.6" r="2.8"/>
		<circle fill="#414042" cx="843.7" cy="423.3" r="2.8"/>
		<circle fill="#414042" cx="857.8" cy="425.6" r="2.8"/>
		<circle fill="#414042" cx="870.9" cy="430.2" r="2.8"/>
		<circle fill="#414042" cx="882.8" cy="437" r="2.8"/>
		<circle fill="#414042" cx="893.4" cy="445.6" r="2.8"/>
		<circle fill="#414042" cx="902.4" cy="455.8" r="2.8"/>
		<circle fill="#414042" cx="909.5" cy="467.5" r="2.8"/>
		<circle fill="#414042" cx="914.6" cy="480.3" r="2.8"/>
		<circle fill="#414042" cx="917.5" cy="494.2" r="2.8"/>
		<circle fill="#414042" cx="917.8" cy="508.7" r="2.8"/>
		<circle fill="#414042" cx="915.8" cy="522.9" r="2.8"/>
		<circle fill="#414042" cx="911.7" cy="536.2" r="2.8"/>
		<circle fill="#414042" cx="905.6" cy="548.6" r="2.8"/>
		<circle fill="#414042" cx="897.8" cy="559.7" r="2.8"/>
		<circle fill="#414042" cx="888.4" cy="569.6" r="2.8"/>
		<circle fill="#414042" cx="877.6" cy="577.9" r="2.8"/>
		<circle fill="#414042" cx="865.6" cy="584.5" r="2.8"/>
		<circle fill="#414042" cx="852.5" cy="589.2" r="2.8"/>
		<circle fill="#414042" cx="838.6" cy="591.9" r="2.8"/>
		<circle fill="#414042" cx="824.1" cy="592.3" r="2.8"/>
		<circle fill="#414042" cx="809.8" cy="590.6" r="2.8"/>
		<circle fill="#414042" cx="796.3" cy="586.9" r="2.8"/>
		<circle fill="#414042" cx="783.6" cy="581.5" r="2.8"/>
		<circle fill="#414042" cx="771.9" cy="574.4" r="2.8"/>
		<circle fill="#414042" cx="761.3" cy="565.8" r="2.8"/>
		<circle fill="#414042" cx="752" cy="555.8" r="2.8"/>
		<circle fill="#414042" cx="744.2" cy="544.6" r="2.8"/>
		<circle fill="#414042" cx="737.9" cy="532.4" r="2.8"/>
		<circle fill="#414042" cx="733.3" cy="519.3" r="2.8"/>
		<circle fill="#414042" cx="730.6" cy="505.4" r="2.8"/>
		<circle fill="#414042" cx="729.9" cy="490.9" r="2.8"/>
		<circle fill="#414042" cx="731.2" cy="476.5" r="2.8"/>
		<circle fill="#414042" cx="734.2" cy="462.7" r="2.8"/>
		<circle fill="#414042" cx="738.9" cy="449.7" r="2.8"/>
		<circle fill="#414042" cx="745.2" cy="437.4" r="2.8"/>
		<circle fill="#414042" cx="752.9" cy="426.1" r="2.8"/>
		<circle fill="#414042" cx="761.8" cy="415.9" r="2.8"/>
		<circle fill="#414042" cx="772" cy="406.8" r="2.8"/>
		<circle fill="#414042" cx="783.3" cy="399.1" r="2.8"/>
		<circle fill="#414042" cx="795.5" cy="392.7" r="2.8"/>
		<circle fill="#414042" cx="808.5" cy="388" r="2.8"/>
		<circle fill="#414042" cx="822.2" cy="384.8" r="2.8"/>
		<circle fill="#414042" cx="836.6" cy="383.5" r="2.8"/>
		<circle fill="#414042" cx="851.1" cy="383.9" r="2.8"/>
		<circle fill="#414042" cx="865.2" cy="386" r="2.8"/>
		<circle fill="#414042" cx="878.8" cy="389.7" r="2.8"/>
		<circle fill="#414042" cx="891.6" cy="394.9" r="2.8"/>
		<circle fill="#414042" cx="903.7" cy="401.4" r="2.8"/>
		<circle fill="#414042" cx="914.9" cy="409.2" r="2.8"/>
		<circle fill="#414042" cx="925.2" cy="418.1" r="2.8"/>
		<circle fill="#414042" cx="934.4" cy="428.2" r="2.8"/>
		<circle fill="#414042" cx="942.5" cy="439.2" r="2.8"/>
		<circle fill="#414042" cx="949.3" cy="451.1" r="2.8"/>
		<circle fill="#414042" cx="954.7" cy="463.8" r="2.8"/>
		<circle fill="#414042" cx="958.8" cy="477.2" r="2.8"/>
		<circle fill="#414042" cx="961.2" cy="491.1" r="2.8"/>
		<circle fill="#414042" cx="962.1" cy="505.6" r="2.8"/>
	</g>
	<g>
		<path fill="#414042" d="M1208.7,443.5c-14.8-14.8-34.5-23-55.5-23s-40.7,8.2-55.5,23c-23.9,23.9-23.9,62.7,0,86.5
			c18.5,18.5,48.5,18.5,67,0c14.2-14.2,14.2-37.2,0-51.3c-10.7-10.7-28.1-10.7-38.8,0c-5.5,5.5-7.2,13.3-5.1,20.2
			c-1-6,0.8-12.4,5.5-17c4.2-4.2,9.9-6.6,15.9-6.6s11.6,2.3,15.9,6.6c10.2,10.2,10.2,26.7,0,36.8c-5.8,5.8-13.5,9-21.6,9
			s-15.8-3.2-21.6-9c-6.8-6.8-10.6-15.9-10.6-25.6c0-9.7,3.8-18.8,10.6-25.6c16.9-16.9,44.4-16.9,61.2,0c20.3,20.3,20.3,53.4,0,73.8
			c-12.3,12.3-28.5,18.5-44.7,18.5c-16.2,0-32.4-6.2-44.7-18.5c-30-30-30-78.9,0-108.9c17.8-17.8,41.5-27.6,66.7-27.6
			c25.2,0,48.9,9.8,66.7,27.6c24,24,35.2,56,33.8,87.5c3-10.1,4.6-20.8,4.6-31.9c0-62.1-50.3-112.4-112.4-112.4
			s-112.4,50.3-112.4,112.4s50.3,112.4,112.4,112.4c27.7,0,45.7-10,65.2-26.6C1246,538.8,1244.2,479,1208.7,443.5z"/>
	</g>
	<g>
		<path fill="#414042" d="M221.4,802.5c-14.6-9.7-56-109.5,52.7-128.2C199.1,643.4,126.9,748.8,221.4,802.5z"/>
		<path fill="#414042" d="M211.7,776.2c0.8-21.1,40.9-116,129.2-50C311.7,650.5,185.5,670.7,211.7,776.2z"/>
		<path fill="#414042" d="M225.3,750.3c15.7-16,112.7-49.4,124.8,60.2C385.4,737.5,284.4,659.1,225.3,750.3z"/>
		<path fill="#414042" d="M242.5,746.2c19.8-3.2,119.6,28.9,62.9,123.5C377.7,832.9,344.8,709.4,242.5,746.2z"/>
		<path fill="#414042" d="M271.2,755.1c17.5,14.6,55.6,109.8-53.2,128C292.8,914.3,365.5,809.1,271.2,755.1z"/>
		<path fill="#414042" d="M280.8,781.4c1.7,19.7-41.3,115.9-129.4,49.5C180.3,906.7,306.6,887,280.8,781.4z"/>
		<path fill="#414042" d="M267.1,807.2c-13,14.7-112.9,49-124.6-60.7C107,819.4,207.7,898.2,267.1,807.2z"/>
		<path fill="#414042" d="M249.9,811.3c-23.2,4.1-119.5-29.4-62.4-123.8C115,724,147.4,847.7,249.9,811.3z"/>
	</g>
	<path fill="#414042" d="M653.8,744.2c0,0,0.2,0.8,0.7,2.4c0.4,1.6,1,4,1.6,7.2c0.6,3.2,1.1,7.2,1.4,12c0.3,4.8,0.2,10.3-0.5,16.5
		c-1.3,12.3-5.3,27.4-14.1,42.9c-4.4,7.7-10,15.5-17.1,22.9c-7,7.3-15.4,14.2-25.3,19.9c-9.8,5.7-21.1,10.3-33.5,12.7
		c-12.3,2.5-25.6,2.9-38.9,0.7c-13.3-2.1-26.7-6.8-39-14.2c-6.1-3.7-12-8-17.4-12.9c-5.4-4.9-10.4-10.4-14.8-16.4
		c-8.8-12-15.4-26-18.9-40.9c-1.8-7.5-2.8-15.1-3.1-22.8c-0.1-3.9-0.1-7.7,0.2-11.6c0.1-1.9,0.3-3.9,0.5-5.8l0.2-1.8l0.2-1.2
		l0.4-2.5c0.4-2,0.8-4.3,1.3-6.2c0.5-1.9,1-3.9,1.6-5.8c1.2-3.9,2.7-7.6,4.4-11.3c1.7-3.6,3.6-7.2,5.9-10.6c1-1.7,2.3-3.3,3.4-5
		c1.2-1.6,2.4-3.2,3.7-4.7c5.2-6.2,11.2-11.6,17.7-16.2c6.5-4.6,13.7-8.3,21.2-11.1c7.5-2.7,15.3-4.5,23.1-5.3
		c2-0.1,3.9-0.3,5.9-0.4c1,0,2-0.1,2.9-0.1l2.9,0.1c2,0,3.9,0.2,5.8,0.4c1,0.1,1.9,0.2,2.9,0.4l1.4,0.2l1,0.1l0.6,0.1l2.5,0.5
		l3.2,0.7c1.1,0.2,2,0.5,3,0.8c1,0.3,1.9,0.5,2.9,0.9c3.8,1.2,7.5,2.8,11,4.6c3.5,1.8,6.9,3.9,10.1,6.2c3.2,2.3,6.1,4.9,8.9,7.6
		c2.8,2.7,5.3,5.7,7.6,8.8c2.3,3.1,4.3,6.4,6,9.8c1.7,3.4,3.3,6.9,4.5,10.5c1.2,3.6,2.1,7.3,2.8,11c0.6,3.7,0.9,7.5,1,11.2l0,2.8
		c0,0.9-0.1,1.9-0.1,2.8c0,0.9-0.1,1.9-0.2,2.8l-0.1,1.4l-0.1,0.7l-0.1,0.5l0,0.3l-0.2,1.2l-0.1,0.6l0,0.3l-0.1,0.4
		c-0.2,1-0.4,2-0.6,3l-0.7,2.8l-0.8,2.7c-1.2,3.6-2.7,7.1-4.5,10.4c-7.2,13.3-19.5,23.3-33.2,28.1c-6.9,2.4-14.2,3.5-21.3,3.3
		c-0.9,0-1.8-0.1-2.7-0.1l-1.3-0.1l-0.7-0.1l-0.3,0c-0.2,0,0,0-0.6-0.1l-2.3-0.3c-1-0.2-2-0.4-2.9-0.6c-3.6-0.8-7-2-10.3-3.6
		c-13.1-6.2-22.6-18.1-26.2-31.1c-1.9-6.5-2.2-13.2-1.4-19.6c0.8-6.6,3.3-12.9,7-18.2c3.6-5.3,8.5-9.4,13.7-12.3
		c5.3-2.9,11.1-4.4,16.7-4.8c0.7,0,1.4,0,2.1-0.1l2.1,0.1l2.1,0.2c0.7,0.1,1.5,0.2,2.2,0.3l0.8,0.2l0.4,0.1l0.6,0.1l1.1,0.3l1,0.3
		c1.3,0.4,2.6,0.9,3.9,1.4c5,2.2,9.3,5.6,12.4,9.6c3.1,4,5.1,8.6,6,13.1c0.5,2.3,0.6,4.6,0.6,6.8c-0.1,2.2-0.3,4.4-0.9,6.4
		c-1.1,4.3-3.3,7.9-5.9,10.7c-2.7,2.8-5.8,4.9-9,6c-3.2,1.2-6.5,1.6-9.4,1.4c-0.7,0-1.5-0.1-2.2-0.2c-0.4-0.1-0.7-0.1-1.1-0.2
		c-0.3-0.1-0.6-0.1-1-0.2c-1.4-0.4-2.7-0.8-3.8-1.4c-4.6-2.4-7.3-6.1-8.5-9.2c-1.3-3.2-1.3-5.8-1.2-7.4c0.1-0.8,0.2-1.5,0.2-1.9
		c0.1-0.4,0.1-0.6,0.1-0.6s0,0.2,0,0.6c0,0.4,0,1,0.1,1.9c0.2,1.6,0.7,4,2.4,6.6c1.6,2.5,4.4,5.3,8.3,6.5c1,0.3,2.1,0.5,3.1,0.6
		c0.2,0,0.6,0,0.9,0.1l0.8,0c0.6,0,1.2,0,1.7-0.1c2.3-0.2,4.7-0.9,7-2.2c2.2-1.2,4.3-3,5.9-5.2c1.6-2.2,2.7-4.9,3-7.6
		c0.3-2.9,0.1-6.1-0.9-9c-1-3-2.6-5.8-4.9-8.1c-2.3-2.3-5.1-4.2-8.3-5.2c-0.8-0.3-1.6-0.5-2.4-0.6l-0.6-0.1l-0.5-0.1l-0.3,0l-0.4,0
		l-0.8-0.1c-0.2,0,0.1,0,0,0l-0.2,0l-0.3,0l-0.7,0l-1.4,0l-1.4,0.1l-1.4,0.2c-3.6,0.5-7.2,1.9-10.3,3.9c-3.1,2.1-5.9,4.9-7.8,8.2
		c-2,3.3-3.2,7-3.4,11c-0.3,4.2,0.2,8.5,1.6,12.5c1.4,4.1,3.5,7.9,6.4,11.2c2.9,3.3,6.5,6,10.6,7.9c2,1,4.2,1.7,6.4,2.2
		c0.5,0.1,1,0.2,1.5,0.3l2.2,0.3c-0.4-0.1,0,0,0,0l0.2,0l0.5,0l0.9,0.1c0.6,0.1,1.2,0.1,1.8,0.1c4.9,0.1,9.8-0.5,14.6-2.1
		c9.5-3.2,18-10,23.1-19.2c1.3-2.3,2.4-4.7,3.1-7.2l0.6-1.9l0.5-1.9l0.3-1.7l0-0.2l0-0.3l0.1-0.6l0.2-1.2l0-0.3c0-0.3,0,0.1,0-0.1
		l0-0.5l0.1-1c0.1-0.7,0.1-1.4,0.1-2.1c0-0.7,0.1-1.4,0.1-2.1l0-2.1c-0.1-2.8-0.5-5.6-1-8.3c-1.1-5.5-3-10.8-5.9-15.7
		c-1.4-2.4-3-4.8-4.8-7c-1.8-2.2-3.7-4.3-5.8-6.1c-4.2-3.8-9-6.8-14.1-9c-2.6-1.1-5.2-2-7.9-2.7c-0.7-0.2-1.4-0.3-2-0.4
		c-0.7-0.1-1.4-0.3-2-0.4l-1.8-0.3l-2.5-0.3l-0.6-0.1c-0.2,0,0.4,0.1,0,0l-0.3,0l-1.1,0c-0.7,0-1.4-0.1-2.2-0.1
		c-1.4,0-2.9,0-4.3,0.1l-2.2,0.1l-2.1,0.2c-1.4,0.1-2.8,0.4-4.3,0.6c-5.6,1-11.1,2.8-16.3,5.2c-10.3,4.8-19.2,12.2-25.7,21.1
		c-3.3,4.4-5.9,9.3-8,14.3c-1,2.5-1.9,5.1-2.6,7.7c-0.4,1.3-0.6,2.6-0.9,3.9c-0.3,1.3-0.4,2.3-0.6,3.6l-0.3,2.5l-0.2,1.2
		c0,0.2,0.1-0.6,0-0.1l0,0.3l0,0.5c-0.1,1.4-0.2,2.8-0.3,4.2c-0.1,2.8-0.1,5.6,0.1,8.4c0.3,5.6,1.2,11,2.7,16.3
		c2.8,10.6,7.7,20.4,14.1,29c3.2,4.3,6.7,8.3,10.5,11.8c3.8,3.6,7.8,6.8,12.1,9.6c8.5,5.7,17.9,9.7,27.6,12.2
		c1.2,0.3,2.5,0.6,3.5,0.8l0.8,0.2l1.1,0.2l1.1,0.2l0.3,0c0.1,0-0.2,0,0.1,0l0.5,0.1c2.4,0.4,4.8,0.7,7.3,0.9
		c4.8,0.4,9.6,0.3,14.4-0.1c4.7-0.4,9.4-1.2,13.9-2.4c4.5-1.1,8.9-2.7,13-4.4c4.2-1.8,8.2-3.8,12-6.1c3.8-2.3,7.3-4.8,10.7-7.4
		c3.4-2.6,6.5-5.4,9.4-8.3c2.9-2.9,5.6-5.8,8-8.9c9.8-12.1,15.7-24.8,19.2-35.7c0.8-2.7,1.6-5.4,2.1-7.9c0.6-2.5,1-4.9,1.4-7.1
		c0.7-4.5,1-8.4,1.2-11.5c0.2-3.2,0.1-5.6,0.1-7.3C653.8,745.1,653.8,744.2,653.8,744.2z"/>
	<g>
		<g>
			<path fill="#414042" d="M858.5,664.5c-15.2,12.8-24.9,32-24.9,53.5c0,21.5,9.7,40.7,24.9,53.5c-11.8-14.6-18.8-33.2-18.8-53.5
				S846.7,679.2,858.5,664.5z"/>
		</g>
		<g>
			<path fill="#414042" d="M833.5,893c15.2-12.8,24.9-32,24.9-53.5c0-21.5-9.7-40.7-24.9-53.5c11.8,14.6,18.8,33.2,18.8,53.5
				S845.3,878.3,833.5,893z"/>
		</g>
		<g>
			<path fill="#414042" d="M960.2,791.2c-12.8-15.2-32-24.9-53.5-24.9c-21.5,0-40.7,9.7-53.5,24.9c14.6-11.8,33.2-18.8,53.5-18.8
				S945.6,779.4,960.2,791.2z"/>
		</g>
		<g>
			<path fill="#414042" d="M731.8,766.3c12.8,15.2,32,24.9,53.5,24.9c21.5,0,40.7-9.7,53.5-24.9c-14.6,11.8-33.2,18.8-53.5,18.8
				S746.4,778,731.8,766.3z"/>
		</g>
		<g>
			<path fill="#414042" d="M935.6,706.8c-19.8-1.7-40.3,5-55.4,20.2c-15.2,15.2-21.9,35.6-20.2,55.4c2-18.7,10.2-36.8,24.5-51.1
				C898.8,717,916.9,708.8,935.6,706.8z"/>
		</g>
		<g>
			<path fill="#414042" d="M756.4,850.7c19.8,1.7,40.3-5,55.4-20.2c15.2-15.2,21.9-35.6,20.2-55.4c-2,18.7-10.2,36.8-24.5,51.1
				C793.2,840.5,775.1,848.7,756.4,850.7z"/>
		</g>
		<g>
			<path fill="#414042" d="M917.9,868.3c1.7-19.8-5-40.3-20.2-55.4c-15.2-15.2-35.6-21.9-55.4-20.2c18.7,2,36.8,10.2,51.1,24.5
				C907.8,831.5,915.9,849.7,917.9,868.3z"/>
		</g>
		<g>
			<path fill="#414042" d="M774,689.2c-1.7,19.8,5,40.3,20.2,55.4c15.2,15.2,35.6,21.9,55.4,20.2c-18.7-2-36.8-10.2-51.1-24.5
				S776.1,707.8,774,689.2z"/>
		</g>
		<g>
			<path fill="#414042" d="M900.6,677.6c-18.9,6.1-35.2,20.2-43.3,40.1c-8.1,19.9-6.3,41.3,2.9,58.9c-5.4-18-4.9-37.9,2.7-56.6
				S884.2,686.8,900.6,677.6z"/>
		</g>
		<g>
			<path fill="#414042" d="M791.4,879.8c18.9-6.1,35.2-20.2,43.3-40.1c8.1-19.9,6.3-41.3-2.9-58.9c5.4,18,4.9,37.9-2.7,56.6
				S807.8,870.7,791.4,879.8z"/>
		</g>
		<g>
			<path fill="#414042" d="M947.1,833.3c-6.1-18.9-20.2-35.2-40.1-43.3c-19.9-8.1-41.3-6.3-58.9,2.9c18-5.4,37.9-4.9,56.6,2.7
				S938,816.9,947.1,833.3z"/>
		</g>
		<g>
			<path fill="#414042" d="M744.9,724.1c6.1,18.9,20.2,35.2,40.1,43.3c19.9,8.1,41.3,6.3,58.9-2.9c-18,5.4-37.9,4.9-56.6-2.7
				C768.6,754.1,754,740.6,744.9,724.1z"/>
		</g>
		<g>
			<path fill="#414042" d="M956.1,745.9c-17.7-9.1-39.2-10.6-59-2.2c-19.8,8.3-33.7,24.7-39.6,43.8c8.9-16.5,23.3-30.3,42-38.1
				C918.2,741.4,938,740.7,956.1,745.9z"/>
		</g>
		<g>
			<path fill="#414042" d="M735.9,811.6c17.7,9.1,39.2,10.6,59,2.2s33.7-24.7,39.6-43.8c-8.9,16.5-23.3,30.3-42,38.1
				C773.8,816.1,754,816.8,735.9,811.6z"/>
		</g>
		<g>
			<path fill="#414042" d="M878.9,888.8c9.1-17.7,10.6-39.2,2.2-59c-8.3-19.8-24.7-33.7-43.8-39.6c16.5,8.9,30.3,23.3,38.1,42
				C883.3,850.9,884,870.8,878.9,888.8z"/>
		</g>
		<g>
			<path fill="#414042" d="M813.1,668.6c-9.1,17.7-10.6,39.2-2.2,59c8.3,19.8,24.7,33.7,43.8,39.6c-16.5-8.9-30.3-23.3-38.1-42
				C808.7,706.6,808,686.7,813.1,668.6z"/>
		</g>
	</g>
	<g>
		<path fill="#414042" d="M1068.3,700.2c12.5-10.8,26.7-19,42.3-24.2c16.1-5.5,33-7.6,50.1-6.4c15.4,1.1,30.2,5.2,43.9,12.2
			c13.2,6.8,24.8,15.9,34.6,27.2c9.7,11.3,17.1,24.1,21.9,38.1c4.9,14.5,6.9,29.7,5.8,45.2c-1,13.9-4.7,27.2-11,39.6
			c-6.1,11.9-14.3,22.4-24.5,31.2c-10.2,8.8-21.7,15.4-34.4,19.7c-13.1,4.5-26.8,6.2-40.8,5.2c-12.6-0.9-24.6-4.3-35.7-10
			c-10.7-5.5-20.2-12.9-28.1-22.1c-7.9-9.2-13.9-19.6-17.8-31c-4-11.8-5.6-24.2-4.7-36.8c0.8-11.3,3.8-22.2,9-32.2
			c5-9.7,11.7-18.2,19.9-25.4c8.3-7.2,17.7-12.6,28-16.1c10.7-3.6,21.8-5.1,33.2-4.2c20.3,1.5,38.7,10.7,52,26.1
			c13.3,15.4,19.8,35,18.3,55.3c-1.3,18.3-9.7,35-23.6,47c-13.9,12-31.6,17.9-49.9,16.6c-16.5-1.2-31.6-8.8-42.5-21.3
			c-10.8-12.5-16.2-28.6-15-45.1c1.1-14.9,7.9-28.6,19.3-38.4s25.8-14.6,40.8-13.5c27.9,2,49,26.4,46.9,54.3
			c-1.8,25.2-23.9,44.3-49.1,42.5c-22.9-1.7-40.1-21.6-38.4-44.5c1.5-20.7,19.6-36.3,40.3-34.8c18.8,1.4,32.9,17.7,31.6,36.5
			c-0.6,8.2-4.4,15.8-10.6,21.2c-6.3,5.4-14.2,8.1-22.5,7.5c-7.5-0.5-14.3-4-19.2-9.6c-4.9-5.7-7.3-12.9-6.8-20.4
			c1-14,13.3-24.6,27.3-23.6c12.8,0.9,22.4,12.1,21.5,24.8c-0.8,11.6-11,20.4-22.6,19.6c-5.1-0.4-9.8-2.7-13.2-6.6
			c-3.4-3.9-5-8.9-4.6-14c0.3-4.7,2.5-9,6-12c3.6-3.1,8.1-4.6,12.8-4.2c4.3,0.3,8.2,2.3,11,5.5c2.8,3.2,4.2,7.4,3.9,11.7
			c-0.3,3.9-2.1,7.5-5,10.1c-3,2.6-6.8,3.8-10.7,3.5c-3.6-0.3-6.9-1.9-9.2-4.6s-3.5-6.2-3.2-9.8c0.1-1.3,1.3-2.3,2.6-2.2
			c1.3,0.1,2.3,1.3,2.2,2.6c-0.3,4.8,3.2,8.9,8,9.2c2.6,0.2,5.2-0.7,7.2-2.4c2-1.7,3.2-4.1,3.4-6.8c0.2-3-0.7-5.9-2.7-8.2
			c-2-2.3-4.7-3.6-7.7-3.9c-7-0.5-13.1,4.8-13.6,11.8c-0.3,3.8,1,7.6,3.5,10.5c2.5,2.9,6,4.7,9.9,5c9,0.7,16.8-6.1,17.4-15.1
			c0.7-10.1-6.9-18.9-17-19.7c-11.4-0.8-21.3,7.8-22.1,19.1c-0.9,12.8,8.7,24,21.5,24.9c7,0.5,13.7-1.7,19-6.3
			c5.3-4.6,8.5-10.9,9-17.9c1.2-16.1-11-30.2-27.1-31.3c-18-1.3-33.8,12.3-35.1,30.4c-1.5,20.2,13.8,37.8,34,39.3
			c22.6,1.6,42.3-15.4,43.9-38c1.8-25.3-17.2-47.3-42.5-49.1c-28.2-2-52.8,19.2-54.9,47.4c-2.3,31.5,21.5,59,53,61.2
			c17,1.2,33.5-4.2,46.4-15.4c12.9-11.2,20.7-26.7,21.9-43.7c2.8-39.2-26.7-73.4-65.9-76.2c-43.7-3.2-81.8,29.8-85,73.5
			c-3.5,48.7,33.2,91.2,81.9,94.7c54.2,3.9,101.6-37,105.5-91.2c4.4-60.4-41.2-113.1-101.6-117.5c-67.3-4.9-126,45.9-130.9,113.1
			c-0.1,1.3-1.3,2.3-2.6,2.2c-1.3-0.1-2.3-1.3-2.2-2.6c1.2-17.1,5.8-33.5,13.6-48.6C1045.7,723.9,1055.8,711,1068.3,700.2z"/>
	</g>
</g>
</svg>
